<svg id="Layer_1" data-name="Layer 1" xmlns="http://www.w3.org/2000/svg" viewBox="0 0 224 90.1"><defs><style>.cls-1{fill:#919191;}.cls-2{fill:#ed2224;}.cls-3{fill:#f69e1d;}.cls-4{fill:#19ac5b;}.cls-5{fill:#8150a0;}.cls-6{fill:#347fc2;}</style></defs><title>agoda-logo</title><path class="cls-1" d="M87.52,24.66V40.87a17.92,17.92,0,0,1-.58,4.8,7.43,7.43,0,0,1-5.3,5.23,21.84,21.84,0,0,1-5.23.65,15.63,15.63,0,0,1-5.16-.8,9.2,9.2,0,0,1-3.56-2.1A3.87,3.87,0,0,1,66.45,46a2.08,2.08,0,0,1,.73-1.67,2.4,2.4,0,0,1,1.67-.66A2.67,2.67,0,0,1,71,44.79l.94,1.09a4.64,4.64,0,0,0,1.09,1,3.29,3.29,0,0,0,1.38.58,7.71,7.71,0,0,0,1.89.22,7.49,7.49,0,0,0,3.34-.58,3.77,3.77,0,0,0,1.68-1.67,8.75,8.75,0,0,0,.58-2.33c.07-.8.07-2.18.14-4a10.76,10.76,0,0,1-3,2.76,8.52,8.52,0,0,1-4,.94A8.54,8.54,0,0,1,67,37.38a14,14,0,0,1-1.09-6,15.9,15.9,0,0,1,.65-4.5,10.67,10.67,0,0,1,2-3.42A8.48,8.48,0,0,1,75,20.67a9.56,9.56,0,0,1,4.07.87,10.1,10.1,0,0,1,3.19,2.83v-.72A3.27,3.27,0,0,1,83,21.39a2.5,2.5,0,0,1,1.82-.79,2,2,0,0,1,2.1,1,6,6,0,0,1,.51,3m-16.13,7a7.45,7.45,0,0,0,1.45,5.08,4.83,4.83,0,0,0,3.85,1.75,5.4,5.4,0,0,0,2.62-.73,5.18,5.18,0,0,0,2-2.25,9.23,9.23,0,0,0,.79-3.63,8.12,8.12,0,0,0-1.52-5.31,5,5,0,0,0-7.78-.07,8.75,8.75,0,0,0-1.45,5.16"/><path class="cls-1" d="M123.06,31.93a12.18,12.18,0,0,1-.8,4.58A9.92,9.92,0,0,1,120,40.14a10.14,10.14,0,0,1-3.49,2.33,13.51,13.51,0,0,1-9.16,0,9.92,9.92,0,0,1-5.74-6,14.3,14.3,0,0,1,0-9.23,10.34,10.34,0,0,1,2.25-3.56,10.14,10.14,0,0,1,3.49-2.33,13.24,13.24,0,0,1,9.16,0,10.41,10.41,0,0,1,3.56,2.33,10.2,10.2,0,0,1,2.25,3.56,14.45,14.45,0,0,1,.73,4.65m-5.6,0a8.07,8.07,0,0,0-1.52-5.3,4.8,4.8,0,0,0-4-1.89,5.27,5.27,0,0,0-2.91.87,5.73,5.73,0,0,0-1.89,2.47,11.68,11.68,0,0,0,0,7.7A5.57,5.57,0,0,0,109,38.33a5.27,5.27,0,0,0,2.91.87,4.76,4.76,0,0,0,4-1.89,8.43,8.43,0,0,0,1.52-5.38"/><path class="cls-1" d="M153,40.07v-.58a15.54,15.54,0,0,1-2.18,2.11,9.72,9.72,0,0,1-2.4,1.23,8.81,8.81,0,0,1-2.76.44A8.22,8.22,0,0,1,142,42.4a8.93,8.93,0,0,1-3-2.4,10.12,10.12,0,0,1-1.89-3.71,16.41,16.41,0,0,1-.65-4.58c0-3.48.87-6.17,2.54-8.14a9.56,9.56,0,0,1,10.69-2.1A10.88,10.88,0,0,1,152.85,24V15.8a4.17,4.17,0,0,1,.66-2.62,2.2,2.2,0,0,1,2-.87,2.31,2.31,0,0,1,2,.8,3.46,3.46,0,0,1,.66,2.4V40.07a3.52,3.52,0,0,1-.73,2.4,2.63,2.63,0,0,1-3.78,0,3.46,3.46,0,0,1-.58-2.4M142,31.86a10.05,10.05,0,0,0,.73,3.85,5.26,5.26,0,0,0,2,2.4,4.92,4.92,0,0,0,5.38,0,5.48,5.48,0,0,0,2-2.33,9.17,9.17,0,0,0,.73-3.92A10,10,0,0,0,152,28a5.54,5.54,0,0,0-2-2.47,4.6,4.6,0,0,0-2.69-.88,4.79,4.79,0,0,0-2.76.88A5.53,5.53,0,0,0,142.61,28a9.18,9.18,0,0,0-.66,3.85"/><path class="cls-1" d="M187.3,40.07a15.41,15.41,0,0,1-3.93,2.33,12.22,12.22,0,0,1-4.21.79,8.49,8.49,0,0,1-3.78-.87A5.87,5.87,0,0,1,172.91,40a6,6,0,0,1,.58-7,7.28,7.28,0,0,1,4-2.18l2.61-.58c1.38-.29,2.62-.51,3.64-.8s2.1-.51,3.27-.87a6.46,6.46,0,0,0-.87-3.27c-.51-.66-1.6-1-3.27-1a7,7,0,0,0-3.2.58,5.32,5.32,0,0,0-1.82,1.74,11,11,0,0,1-1.09,1.53,1.79,1.79,0,0,1-1.38.36,2.51,2.51,0,0,1-1.6-.58,1.74,1.74,0,0,1-.65-1.52,4.54,4.54,0,0,1,1-2.84,7.47,7.47,0,0,1,3.27-2.25,14.06,14.06,0,0,1,5.46-.87,15.27,15.27,0,0,1,5.74.87,5.34,5.34,0,0,1,3,2.76,11.89,11.89,0,0,1,.87,5v6.33a12.79,12.79,0,0,0,.51,3.27,12,12,0,0,1,.5,2.18,2.06,2.06,0,0,1-.79,1.6,2.91,2.91,0,0,1-1.82.72,2.15,2.15,0,0,1-1.67-.8,6.43,6.43,0,0,1-1.89-2.25m-.37-8a29,29,0,0,1-3.56.94c-1.52.36-2.61.58-3.27.73a4.11,4.11,0,0,0-1.74.94,2.19,2.19,0,0,0-.8,1.89,2.92,2.92,0,0,0,1,2.18,3.58,3.58,0,0,0,2.54.87,6,6,0,0,0,3-.72,5.68,5.68,0,0,0,2-1.89,8.19,8.19,0,0,0,.72-4.14l.07-.8Z"/><path class="cls-1" d="M45.89,40.07A17.12,17.12,0,0,1,42,42.4a12.22,12.22,0,0,1-4.21.79A8.49,8.49,0,0,1,34,42.32,5.87,5.87,0,0,1,31.5,40a6,6,0,0,1-.87-3.13A5.92,5.92,0,0,1,32.08,33a7.28,7.28,0,0,1,4-2.18l2.61-.58c1.38-.29,2.62-.51,3.63-.8s2.11-.51,3.28-.87a6.47,6.47,0,0,0-.88-3.27c-.51-.66-1.6-1-3.27-1a6.89,6.89,0,0,0-3.19.58,5.23,5.23,0,0,0-1.82,1.74,11,11,0,0,1-1.09,1.53,1.79,1.79,0,0,1-1.38.36,2.51,2.51,0,0,1-1.6-.58,1.72,1.72,0,0,1-.65-1.52,4.54,4.54,0,0,1,1-2.84,7.13,7.13,0,0,1,3.35-2.32,14.13,14.13,0,0,1,5.52-.88,15.27,15.27,0,0,1,5.74.88,5.28,5.28,0,0,1,3,2.76,11.89,11.89,0,0,1,.87,5v6.32a12.79,12.79,0,0,0,.51,3.27,11.65,11.65,0,0,1,.51,2.18,2.12,2.12,0,0,1-.8,1.6,2.85,2.85,0,0,1-1.82.73,2.18,2.18,0,0,1-1.67-.8,13,13,0,0,1-1.74-2.33m-.51-7.84a29.52,29.52,0,0,1-3.56.94c-1.53.36-2.62.58-3.27.73a4.09,4.09,0,0,0-1.75.94,2.19,2.19,0,0,0-.8,1.89,3,3,0,0,0,1,2.18,3.6,3.6,0,0,0,2.54.87,6,6,0,0,0,3-.72,4.68,4.68,0,0,0,2-1.89,8.3,8.3,0,0,0,.73-4.14Z"/><circle class="cls-2" cx="41.31" cy="67.1" r="10.68"/><circle class="cls-3" cx="76.62" cy="67.1" r="10.68"/><circle class="cls-4" cx="112.01" cy="67.1" r="10.68"/><circle class="cls-5" cx="147.33" cy="67.1" r="10.68"/><circle class="cls-6" cx="182.72" cy="67.1" r="10.68"/></svg>