<svg id="Layer_1" data-name="Layer 1" xmlns="http://www.w3.org/2000/svg" viewBox="0 0 224 90.1"><defs><style>.cls-1{fill:#009fe3;}.cls-2{fill:#003580;}</style></defs><title>booking-logo</title><path class="cls-1" d="M192,45.49q0-4.56,0-9.1c0-1,0-1.06,1.08-1.06.64,0,1.29,0,1.92,0A2.38,2.38,0,0,1,197.38,37c.23.69.46.5.84.12A7.38,7.38,0,0,1,205.14,35a5.3,5.3,0,0,1,3.7,2.59c.32.55.46.66.94.1a8,8,0,0,1,8.86-2.42c2.6.87,3.58,3,3.9,5.53a66.19,66.19,0,0,1,.14,7.32c0,2.19,0,4.39,0,6.58,0,.72-.24,1-.94.93a16.32,16.32,0,0,1-2.8-.15A2.28,2.28,0,0,1,217,53.35a39.27,39.27,0,0,1-.11-4.73c0-2,0-3.95,0-5.92-.05-2.31-1.56-3.22-3.66-2.26A4.68,4.68,0,0,0,210.89,43a8.13,8.13,0,0,0-.67,3.38c0,2.74,0,5.48,0,8.22,0,1-.07,1-1.06,1h-3.7c-1,0-1,0-1-1V43.84a7.76,7.76,0,0,0,0-1.18c-.13-1-.38-2-1.46-2.38a3,3,0,0,0-3,.61,5.66,5.66,0,0,0-1.65,2.51,9,9,0,0,0-.59,3.26c0,2.68,0,5.37,0,8.06,0,.72-.25,1-.94.93-1.29,0-2.57,0-3.85,0-.69,0-.9-.25-.89-.91,0-3.08,0-6.17,0-9.25Z"/><path class="cls-2" d="M1.3,42.68V31.06a3.73,3.73,0,0,1,.59-2.32,2.89,2.89,0,0,1,2.38-1.28c2.59,0,5.19-.1,7.77,0,3,.17,5.6,1.24,7.05,4.12a7.22,7.22,0,0,1-1.75,8.62c-.38.34-.46.5.05.77,3.81,2.07,4.26,7,2.59,10.11-1.42,2.61-3.79,3.76-6.59,4.25a25.5,25.5,0,0,1-4.28.15c-2.3,0-4.59,0-6.88,0-.72,0-.95-.23-.94-.93C1.31,50.63,1.3,46.66,1.3,42.68ZM7,47.34h0c0,.84,0,1.68,0,2.52,0,.53.19.76.74.75,1.4,0,2.81,0,4.21,0a3.27,3.27,0,0,0,3.3-3.23,3.42,3.42,0,0,0-2.62-4,17.21,17.21,0,0,0-4.42-.09A1.3,1.3,0,0,0,7,44.68C6.92,45.57,7,46.46,7,47.34Zm0-11.45c0,.72,0,1.43,0,2.15,0,.5.2.7.71.69,1.1,0,2.21,0,3.32,0a2.94,2.94,0,0,0,3.13-2.54,3,3,0,0,0-3.14-3.94c-.76,0-1.53,0-2.29,0-1.21,0-1.68.51-1.72,1.73C6.92,34.61,6.93,35.25,6.93,35.89Z"/><path class="cls-2" d="M139.05,45.29c0,2.74,0,5.48,0,8.22.09,5.65-3.31,8.93-8.51,9.81a15,15,0,0,1-9.26-1.48c-.47-.23-.63-.46-.39-1,.35-.76.61-1.56,1-2.32a1.77,1.77,0,0,1,2.52-1.1,11.57,11.57,0,0,0,4.58.67,4.22,4.22,0,0,0,3.48-1.79,4.72,4.72,0,0,0,.59-2c0-.14.09-.31-.09-.39s-.27.08-.4.16a8.23,8.23,0,0,1-7,.73c-3.56-1.1-5.5-3.7-6.21-7.25a11.61,11.61,0,0,1,1.53-9.09,9.13,9.13,0,0,1,12.47-2.17c.23.17.44.24.64,0a3,3,0,0,1,2.84-1.08,9.84,9.84,0,0,0,1.33,0c.73-.07,1,.2,1,1C139,39.17,139.05,42.23,139.05,45.29Zm-6-.36c0-.37,0-.74,0-1.11-.2-2.84-2.2-4.33-5-3.73a3,3,0,0,0-2.27,1.71,6.63,6.63,0,0,0,.15,6.31A3.64,3.64,0,0,0,129.85,50a3.41,3.41,0,0,0,3-2.68A6.63,6.63,0,0,0,133.07,44.93Z"/><path class="cls-2" d="M68.23,41.56c0-4.37,0-8.74,0-13.11,0-1,0-1,1-1,.81,0,1.63,0,2.44,0a2.41,2.41,0,0,1,2.64,2.7c0,3.53,0,7.06,0,10.59,0,.41-.3,1,.36,1.21a1.67,1.67,0,0,0,1.83-.64c1-1.52,2.07-3,3-4.6a2.6,2.6,0,0,1,2.81-1.58c1.39.13,2.81,0,4.21,0,.57,0,.75.17.4.69l-5.68,8.31c-.15.23-.39.39-.12.7a12.66,12.66,0,0,1,1.67,2.87c1.24,2.42,2.69,4.71,4.1,7,.13.23.41.45.26.72s-.49.15-.75.15c-1.28,0-2.56,0-3.85,0a3.52,3.52,0,0,1-3.44-2.1c-.92-1.78-1.86-3.54-2.8-5.31a4,4,0,0,0-.37-.63,1.2,1.2,0,0,0-1.29-.35c-.47.11-.31.56-.31.88,0,2.2,0,4.39,0,6.59,0,.71-.25.95-1,.93-1.38,0-2.76,0-4.15,0-1,0-1,0-1-1C68.22,50.29,68.23,45.92,68.23,41.56Z"/><path class="cls-2" d="M97.83,45.37c0-3.08,0-6.16,0-9.25,0-.69.2-1,.92-.94a15.41,15.41,0,0,1,2.88.14,2.48,2.48,0,0,1,1.89,1.49c.2.54.35.41.68.12a8.48,8.48,0,0,1,8.92-1.62c2.6.91,3.66,3,4,5.64a22.57,22.57,0,0,1,.14,3.18V54.49c0,1.16,0,1.16-1.2,1.17h-1.7c-2.16,0-3.18-1-3.19-3.2,0-3,0-6,0-9a5.43,5.43,0,0,0-.22-1.75,1.82,1.82,0,0,0-1.81-1.36c-2.95-.14-5.11,2-5.19,5.11s0,6,0,9c0,1.09,0,1.12-1.11,1.13-1.36,0-2.72,0-4.07,0-.67,0-.91-.21-.91-.9C97.85,51.64,97.83,48.51,97.83,45.37Z"/><path class="cls-2" d="M55.92,56C49.67,56,45.15,51.72,45,45.72a10.21,10.21,0,0,1,9.73-10.86c4-.28,7.44,1,9.81,4.32,4.13,5.84,1.61,15.4-7.13,16.65A9,9,0,0,1,55.92,56ZM60.5,45.34a5.25,5.25,0,0,0-.32-2.12A4.51,4.51,0,0,0,56.28,40a4.4,4.4,0,0,0-4.8,2.69,6.64,6.64,0,0,0-.18,5.05,4.66,4.66,0,0,0,8.82,0A5.7,5.7,0,0,0,60.5,45.34Z"/><path class="cls-2" d="M33,56A10.31,10.31,0,0,1,22.32,45.31,10.22,10.22,0,0,1,33,34.8c6.14,0,10.72,4.06,10.77,10.53S38.9,55.94,33,56Zm-4.75-10.6a9.83,9.83,0,0,0,.06,1.06,4.77,4.77,0,0,0,3.31,4.23,4.52,4.52,0,0,0,5.06-1.5A6.26,6.26,0,0,0,37.43,43,4.6,4.6,0,0,0,31,40.34C29,41.27,28.26,43.14,28.23,45.36Z"/><path class="cls-1" d="M190.13,45.43a10.68,10.68,0,0,1-21.36.15,10.26,10.26,0,0,1,10.76-10.76C186.22,34.87,190.22,39.73,190.13,45.43Zm-5.81.09a9.12,9.12,0,0,0-.38-2.38,4.71,4.71,0,0,0-7.62-2.07,6.13,6.13,0,0,0-1.59,5.52,4.78,4.78,0,0,0,7.16,3.65C183.69,49.2,184.23,47.43,184.32,45.52Z"/><path class="cls-1" d="M167.33,40.12c0,2.52.27,2.18-2,2.21q-.56,0-1.11,0a2,2,0,0,1-2-1.34,1.66,1.66,0,0,0-1.3-1.08,5.19,5.19,0,0,0-6.37,4.81,5.65,5.65,0,0,0,1.25,4.42,6.1,6.1,0,0,0,7.47,1,9.53,9.53,0,0,0,2.21-1.6c.39-.4.64-.34.91.12.57,1,1.15,2,1.75,2.92a.73.73,0,0,1-.09,1c-5.47,5.41-15.09,4.23-18.34-2.56a10.85,10.85,0,0,1,1.85-12,10.73,10.73,0,0,1,7.2-3.23,11.51,11.51,0,0,1,5.44.79,6.9,6.9,0,0,1,1.54.88A3.67,3.67,0,0,1,167.33,40.12Z"/><path class="cls-2" d="M88.78,45.38c0-3.08,0-6.16,0-9.24,0-.75.25-1,1-1a23.57,23.57,0,0,1,2.66.11A2.56,2.56,0,0,1,94.75,38c0,2.25,0,4.49,0,6.73V54.6c0,1,0,1-1.09,1.06-1.33,0-2.66,0-4,0-.67,0-.91-.21-.91-.89,0-3.14,0-6.27,0-9.4Z"/><path class="cls-2" d="M91.52,26.57a3.45,3.45,0,1,1,0,6.89,3.45,3.45,0,1,1,0-6.89Z"/><path class="cls-1" d="M144.53,55.81a3.45,3.45,0,0,1-3.45-3.42,3.49,3.49,0,0,1,7,0A3.45,3.45,0,0,1,144.53,55.81Z"/></svg>