<svg id="圖層_1" data-name="圖層 1" xmlns="http://www.w3.org/2000/svg" viewBox="0 0 200 200"><defs><style>.cls-1{fill:#666464;}</style></defs><title>checkout</title><path class="cls-1" d="M174.64,176.52H25.36c-3,0-5.43-3-5.43-6.65V44.77c0-3.67,2.43-6.65,5.43-6.65H174.64c3,0,5.43,3,5.43,6.65v125.1C180.07,173.54,177.64,176.52,174.64,176.52ZM25.36,41.44c-1.5,0-2.72,1.49-2.72,3.33v125.1a3.06,3.06,0,0,0,2.72,3.32H174.64a3.06,3.06,0,0,0,2.72-3.32V44.77c0-1.84-1.22-3.33-2.72-3.33Z"/><path class="cls-1" d="M178.66,78.87H21.29a1.69,1.69,0,0,1,0-3.32H178.71a1.55,1.55,0,0,1,1.36,1.66,1.53,1.53,0,0,1-1.35,1.66Z"/><path class="cls-1" d="M141.06,157.06a1.52,1.52,0,0,1,1.31-1.67h16.57a1.71,1.71,0,0,1,0,3.33H142.37A1.54,1.54,0,0,1,141.06,157.06Z"/><path class="cls-1" d="M62.47,55.28a1.66,1.66,0,0,1-1.66-1.66V25.14a1.66,1.66,0,0,1,3.32,0V53.62A1.66,1.66,0,0,1,62.47,55.28Z"/><path class="cls-1" d="M139.39,55.28a1.66,1.66,0,0,1-1.66-1.66V25.14a1.67,1.67,0,0,1,3.33,0V53.62A1.66,1.66,0,0,1,139.39,55.28Z"/></svg>