<svg id="圖層_1" data-name="圖層 1" xmlns="http://www.w3.org/2000/svg" viewBox="0 0 200 200"><defs><style>.cls-1{fill:#666464;}</style></defs><title>coin</title><path class="cls-1" d="M103.26,98.49V72.83a15,15,0,0,1,10.82,6.36A2.05,2.05,0,1,0,117.52,77a19.2,19.2,0,0,0-14.25-8.22V62.64a2,2,0,0,0-4.1,0v6.07c-9.44.92-16.8,8-16.8,16.63,0,9.11,8.24,13.35,16.8,16.18v25.67a32.82,32.82,0,0,1-15.64-7.29,2.05,2.05,0,0,0-3,2.76,3.11,3.11,0,0,0,.33.29,36.54,36.54,0,0,0,18.32,8.31v6.1a2.05,2.05,0,1,0,4.1,0v-6.07c9.44-.92,16.8-8,16.8-16.63,0-9.54-9.19-13.79-16.78-16.17Zm-4.1-1.28C90.24,94,86.42,90.51,86.42,85.38,86.42,79,92,73.74,99.16,72.89Zm4.1,30V102.82c8.63,2.94,12.73,6.74,12.73,11.88,0,6.36-5.55,11.64-12.73,12.49Z"/><path class="cls-1" d="M100,175.93A75.93,75.93,0,1,1,175.93,100,76,76,0,0,1,100,175.93Zm0-147.86A71.93,71.93,0,1,0,171.93,100,72,72,0,0,0,100,28.07Z"/></svg>