<svg id="圖層_1" data-name="圖層 1" xmlns="http://www.w3.org/2000/svg" viewBox="0 0 200 200"><defs><style>.cls-1{fill:#8a8a8a;}</style></defs><title>delete</title><path class="cls-1" d="M172,164.46a18.78,18.78,0,0,1-19,19H46.92a18.78,18.78,0,0,1-19-19V52.22H20.38V164.46A26.37,26.37,0,0,0,46.92,191H153.08a26.37,26.37,0,0,0,26.54-26.54V53H172V164.46ZM128.44,31.75V20.37A11.17,11.17,0,0,0,117.06,9H82.94A11.17,11.17,0,0,0,71.56,20.37V31.75H9v7.58H191V31.75ZM79.15,20.37a3.58,3.58,0,0,1,3.79-3.79h34.12a3.58,3.58,0,0,1,3.79,3.79V31.75H79.15Z"/><path class="cls-1" d="M80.28,155a5,5,0,0,1-4.93-4.93V76.49a4.93,4.93,0,0,1,9.86,0v73.56A5,5,0,0,1,80.28,155Zm37.92,0a5,5,0,0,1-4.93-4.93V76.49a4.93,4.93,0,1,1,9.86,0v73.56A5,5,0,0,1,118.2,155Z"/></svg>