<svg id="圖層_1" data-name="圖層 1" xmlns="http://www.w3.org/2000/svg" viewBox="0 0 200 200"><defs><style>.cls-1{fill:#666464;}</style></defs><title>edit</title><path class="cls-1" d="M179.41,96.3a3.7,3.7,0,0,0-3.69,3.7v75.71H24.28V24.28H100a3.7,3.7,0,0,0,0-7.39H24.28a7.41,7.41,0,0,0-7.38,7.39V175.71a7.4,7.4,0,0,0,7.38,7.39H175.72a7.4,7.4,0,0,0,7.38-7.39V100A3.7,3.7,0,0,0,179.41,96.3Z"/><path class="cls-1" d="M97.41,102.58a3.58,3.58,0,0,0,5.18,0L182,23.17a3.72,3.72,0,1,0-5.27-5.26L97.32,97.32A3.77,3.77,0,0,0,97.41,102.58Z"/></svg>