<svg id="圖層_1" data-name="圖層 1" xmlns="http://www.w3.org/2000/svg" viewBox="0 0 200 200"><defs><style>.cls-1{fill:#fff;}</style></defs><title>facebook </title><path class="cls-1" d="M185.5,4.05a10.8,10.8,0,0,1,7.58,3.15,9.67,9.67,0,0,1,3.4,7.31V186a9.64,9.64,0,0,1-3.4,7.31,10.87,10.87,0,0,1-7.58,3.15H136.35V122.24h25.11L165.12,93H136.37V73.82q0-14.32,14.65-14.33h15.17V34.35q-7.84-1.55-22.48-1.55Q127,32.8,116.77,43T106.54,71.51V93H81.44v29.29h25.1v74.25H14a9.92,9.92,0,0,1-7.31-3.15A9.92,9.92,0,0,1,3.52,186V14.51A10,10,0,0,1,6.67,7.2,10,10,0,0,1,14,4.05Z"/></svg>