<svg id="圖層_1" data-name="圖層 1" xmlns="http://www.w3.org/2000/svg" viewBox="0 0 85.04 85.04"><defs><style>.cls-1{fill:#a7c13d;}.cls-2{fill:#231815;}.cls-3{fill:#fff;}</style></defs><title>favicon</title><path class="cls-1" d="M42.49,67A24.43,24.43,0,1,1,66.87,40.43h0A24.42,24.42,0,0,1,44.62,66.86C43.91,66.92,43.19,67,42.49,67Zm.07-44.42c-.57,0-1.15,0-1.74.07A20,20,0,1,0,62.45,40.81h0A20,20,0,0,0,42.56,22.53Z"/><circle class="cls-2" cx="47.64" cy="39.38" r="10.23"/><circle class="cls-3" cx="52.47" cy="34.56" r="4.01"/><rect class="cls-1" x="40.31" y="1.18" width="4.44" height="19.23"/><rect class="cls-1" x="40.31" y="64.62" width="4.44" height="19.23"/><rect class="cls-1" x="0.9" y="40.3" width="19.23" height="4.44"/><rect class="cls-1" x="64.91" y="40.3" width="19.23" height="4.44"/><path class="cls-1" d="M42.49,67A24.43,24.43,0,1,1,66.87,40.43h0A24.42,24.42,0,0,1,44.62,66.86C43.91,66.92,43.19,67,42.49,67Zm.07-44.42c-.57,0-1.15,0-1.74.07A20,20,0,1,0,62.45,40.81h0A20,20,0,0,0,42.56,22.53Z"/><path class="cls-1" d="M42.5,76.69A34.17,34.17,0,1,1,76.57,39.6h0a34.17,34.17,0,0,1-31.12,37C44.46,76.64,43.48,76.69,42.5,76.69Zm.08-63.9c-.86,0-1.72,0-2.59.11a29.73,29.73,0,0,0,2.52,59.35c.85,0,1.7,0,2.56-.11A29.73,29.73,0,0,0,72.15,40h0A29.73,29.73,0,0,0,42.58,12.79Z"/></svg>