<svg id="圖層_1" data-name="圖層 1" xmlns="http://www.w3.org/2000/svg" viewBox="0 0 200 200"><defs><style>.cls-1{fill:#666464;}.cls-2{fill:#fff;}</style></defs><title>filter</title><rect class="cls-1" x="34.59" y="54.46" width="130.82" height="5"/><rect class="cls-1" x="34.59" y="97.5" width="130.82" height="5"/><rect class="cls-1" x="34.59" y="140.54" width="130.82" height="5"/><circle class="cls-2" cx="59.69" cy="56.96" r="11.34"/><path class="cls-1" d="M59.69,70.8A13.84,13.84,0,1,1,73.53,57,13.86,13.86,0,0,1,59.69,70.8Zm0-22.68A8.84,8.84,0,1,0,68.53,57,8.86,8.86,0,0,0,59.69,48.12Z"/><circle class="cls-2" cx="138.26" cy="100" r="11.34"/><path class="cls-1" d="M138.26,113.84A13.84,13.84,0,1,1,152.1,100,13.85,13.85,0,0,1,138.26,113.84Zm0-22.68A8.84,8.84,0,1,0,147.1,100,8.85,8.85,0,0,0,138.26,91.16Z"/><circle class="cls-2" cx="59.69" cy="143.04" r="11.34"/><path class="cls-1" d="M59.69,156.88A13.84,13.84,0,1,1,73.53,143,13.86,13.86,0,0,1,59.69,156.88Zm0-22.68A8.84,8.84,0,1,0,68.53,143,8.86,8.86,0,0,0,59.69,134.2Z"/></svg>