<svg id="圖層_1" data-name="圖層 1" xmlns="http://www.w3.org/2000/svg" viewBox="0 0 200 200"><defs><style>.cls-1{fill:#fb416c;}.cls-2{fill:#fff;}</style></defs><title>follow</title><circle class="cls-1" cx="100" cy="100" r="95.64"/><path class="cls-2" d="M133.55,118.44l-6.62-8.06v-7.69a2.7,2.7,0,0,0-2.69-2.66h0a2.68,2.68,0,0,0-2.68,2.66v8.89l6.55,7.08c1.37,2-.07,4-2.51,4H74.36c-2.44,0-3.88-2-2.52-4l6.52-7.07V94.9c0-11.68,9.26-20.43,21.59-20.43a24.94,24.94,0,0,1,5.77.68,2.51,2.51,0,0,0,3-1.56,2.55,2.55,0,0,0-1.51-3.26l-.25-.08-.8-.19V67.92a6.16,6.16,0,0,0-12.3,0v2.14A27,27,0,0,0,81,76.89a24.65,24.65,0,0,0-7.9,18v15.45l-6.63,8.06a6.06,6.06,0,0,0,5.11,9.31H87.77a12.41,12.41,0,0,0,24.43,0h16.25a6.07,6.07,0,0,0,5.09-9.31ZM98.43,67.92a1.56,1.56,0,0,1,3.11,0h0v1.52c-.51,0-1,0-1.55,0s-1,0-1.52,0ZM100,132.86c-3.73,0-6.07-1.77-6.83-5.11h13.66c-.71,3.34-3.07,5.11-6.8,5.11Z"/><path class="cls-2" d="M114.44,78.52a2.66,2.66,0,0,0,5.32,0h0a2.66,2.66,0,0,0-5.32,0Z"/><path class="cls-2" d="M120.89,89.23a2.66,2.66,0,0,0,5.32,0h0a2.66,2.66,0,0,0-5.32,0Z"/></svg>