<svg id="圖層_1" data-name="圖層 1" xmlns="http://www.w3.org/2000/svg" viewBox="0 0 200 200"><defs><style>.cls-1{fill:#fff;}</style></defs><title>follow</title><path class="cls-1" d="M188.46,148.5,171,127.26V107a7.06,7.06,0,0,0-7.08-7h0a7.06,7.06,0,0,0-7.06,7v23.42l17.26,18.66c3.6,5.3-.2,10.48-6.62,10.48H32.46c-6.42,0-10.22-5.18-6.64-10.48L43,130.46v-44c0-30.76,24.4-53.82,56.9-53.82a64.85,64.85,0,0,1,15.2,1.78A6.62,6.62,0,0,0,123,30.3a6.7,6.7,0,0,0-4-8.58c-.21-.08-.42-.14-.64-.2l-2.12-.5V15.36a16.24,16.24,0,0,0-32.42,0V21a71.38,71.38,0,0,0-34,18A65.08,65.08,0,0,0,29,86.54v40.72L11.54,148.5A16,16,0,0,0,25,173.06H67.8C69.8,188.22,83.44,200,100,200s30.22-11.78,32.18-26.94H175a16,16,0,0,0,13.42-24.56ZM95.9,15.38a4.1,4.1,0,1,1,8.2,0v4c-1.36,0-2.74-.12-4.1-.12s-2.74,0-4,.12Zm4,171.14c-9.84,0-16-4.66-18-13.46h36c-1.88,8.8-8.08,13.46-17.92,13.46Z"/><path class="cls-1" d="M138.1,43.3a7,7,0,0,0,14,0h0a7,7,0,0,0-14,0Z"/><path class="cls-1" d="M155.1,71.54a7,7,0,0,0,14,0h0a7,7,0,0,0-14,0Z"/></svg>