<svg id="圖層_1" data-name="圖層 1" xmlns="http://www.w3.org/2000/svg" viewBox="0 0 200 200"><defs><style>.cls-1{fill:#3e82f1;}.cls-2{fill:#32a753;}.cls-3{fill:#f9bb00;}.cls-4{fill:#e74133;}</style></defs><title>google</title><path class="cls-1" d="M100.63,85.8v36h50.1a42.83,42.83,0,0,1-18.58,28.1v23.36h30.09C179.84,157.06,190,133.2,190,104.85a107.06,107.06,0,0,0-1.69-19Z"/><path class="cls-2" d="M104.37,155.44c-24.24,0-44.77-16.38-52.09-38.38H21.18v24.12a93.06,93.06,0,0,0,83.19,51.28c25.14,0,46.21-8.33,61.62-22.55L135.9,146.55C127.56,152.14,116.9,155.44,104.37,155.44Z"/><path class="cls-3" d="M11.28,99.37a93,93,0,0,0,9.9,41.81l31.1-24.12a55,55,0,0,1,0-35.38V57.56H21.18A93,93,0,0,0,11.28,99.37Z"/><path class="cls-4" d="M20.84,58.72l31.1,24.12c7.32-22,27.85-38.39,52.1-38.39,13.66,0,25.94,4.7,35.58,13.93l26.71-26.7C150.2,16.65,129.13,7.43,104,7.43A93.06,93.06,0,0,0,20.84,58.72Z"/></svg>