<svg id="圖層_1" data-name="圖層 1" xmlns="http://www.w3.org/2000/svg" viewBox="0 0 200 200"><defs><style>.cls-1{fill:#8a8a8a;}</style></defs><title>heart</title><path class="cls-1" d="M141,23.61A46.35,46.35,0,0,0,100,48h0A46.35,46.35,0,0,0,59,23.61C33.46,23.61,12.7,44,12.7,69.16c0,12.19,1.71,24.69,15.05,41.06,13,15.94,69.24,63.55,72.18,66.05v.12l.07-.06.07.06v-.12c2.93-2.5,59.19-50.11,72.18-66.05,13.34-16.37,15.05-28.87,15.05-41.06C187.3,44,166.54,23.61,141,23.61Zm26.7,82.94c-10.45,12.83-50.69,47.59-67.41,61.87h0l-.31.27c-27.66-23.58-59-51.48-67.73-62.13C19.58,91,18.52,79.54,18.52,69.16c0-21.91,18.14-39.73,40.45-39.73A40.43,40.43,0,0,1,94.86,50.76L100,60.44l5.15-9.68A40.43,40.43,0,0,1,141,29.43c22.31,0,40.45,17.82,40.45,39.73C181.48,79.54,180.42,91,167.73,106.55Z"/></svg>