<?xml version="1.0" encoding="utf-8"?>
<!-- Generator: Adobe Illustrator 22.1.0, SVG Export Plug-In . SVG Version: 6.00 Build 0)  -->
<svg version="1.1" id="圖層_1" xmlns="http://www.w3.org/2000/svg" xmlns:xlink="http://www.w3.org/1999/xlink" x="0px" y="0px"
	 viewBox="0 0 200 200" style="enable-background:new 0 0 200 200;" xml:space="preserve">
<style type="text/css">
	.st0{fill:#8A8A8A;}
</style>
<path class="st0" d="M99.8,11.9c0.9,0,1.7,0.4,1.8,0.6l86,78.7c0.1,0.1,0.2,0.2,0.3,0.4c-1.4,1.1-4.7,2.6-7.8,3l-0.2,0l-0.1,0
	c-6.2,0.5-10.6,4.9-10.6,10.7v70.7l0,0.4c-0.1,6.5-5.5,11.9-12,11.9l-30.5,0l-4.3,0c-0.5,0-1.7-0.2-2.4-0.8c-0.2-0.1-0.6-0.6-0.6-2
	l0-22.7c-0.1-6.4-3-10.1-5.5-12.2c-4.8-4-11.5-4.4-14.2-4.4c-0.6,0-1.1,0-1.4,0c-6.2,0.2-10.8,2.1-14,5.4c-3.3,3.5-4.1,8.2-3.8,11.5
	v22.3c0,1.4-0.5,1.8-0.6,2c-0.7,0.6-1.9,0.8-2.3,0.8H42.7c-6.6,0-11.9-5.3-12-11.9v-0.3l0-70.7c0-4.1-1.7-6.6-3.2-7.9
	c-1.2-1.1-2.6-1.8-3.9-2.2L23,94.5h-3.1c-2.7,0-6.3-1.7-7.8-2.9c0.1-0.2,0.2-0.3,0.3-0.4l85.5-78.3C98.7,12,99.4,11.9,99.8,11.9
	 M99.8,3.9c-2.4,0-5,0.8-7.4,3.1L6.8,85.3l-0.2,0.2c-1.8,1.9-2.8,4.2-2.8,6.7c0,5.6,9.8,10.2,16,10.2l0,0l0.1,0
	c0.4,0,1.5,0.1,2.1,0.7c0.4,0.4,0.6,1,0.6,2l0,70.8v0.3c0.1,11,9,19.9,20,19.9h0h34.9h0c0.5,0,4.6-0.1,7.7-2.9
	c1.5-1.4,3.2-3.8,3.2-7.9v-22.6l0-0.2l-0.1-0.3c0-0.3-0.3-3.1,1.7-5.3c1.6-1.7,4.4-2.7,8.4-2.9l0.2,0c0.3,0,0.6,0,0.9,0
	c2.3,0,6.5,0.4,9.1,2.6c1.7,1.4,2.5,3.4,2.6,6.1v22.5c0,4.1,1.8,6.5,3.2,7.9c3.1,2.9,7.2,2.9,7.7,2.9c0,0,0,0,0,0l4.4,0l30.5,0h0
	c11,0,19.9-8.8,20-19.8v-0.5l0-70.7c0-2,1.7-2.6,3.2-2.7l0.4,0l0.1,0c6.2-0.7,15.2-4.7,15.2-10.2c0-2.5-1-4.9-2.8-6.7l-0.1-0.1
	L107,6.5l-0.1-0.1C105.3,5.1,102.7,3.9,99.8,3.9L99.8,3.9z"/>
</svg>
