<svg id="圖層_1" data-name="圖層 1" xmlns="http://www.w3.org/2000/svg" viewBox="0 0 200 200"><defs><style>.cls-1{fill:#8a8a8a;}</style></defs><title>d</title><path class="cls-1" d="M193.35,85.53l-.09-.1L107,6.55l-.12-.1a11.27,11.27,0,0,0-7.1-2.56A10.7,10.7,0,0,0,92.39,7L6.84,85.34l-.19.19a9.7,9.7,0,0,0-2.76,6.72c0,5.63,9.82,10.22,16,10.22H20a3.7,3.7,0,0,1,2.14.68,2.57,2.57,0,0,1,.59,2v71.13a20,20,0,0,0,20,19.87H77.64a12.25,12.25,0,0,0,7.72-2.94,10.27,10.27,0,0,0,3.24-7.89V162.71l0-.22-.06-.29a7.15,7.15,0,0,1,1.69-5.27c1.61-1.74,4.44-2.7,8.41-2.86h.17c.25,0,.57,0,1,0,2.26,0,6.49.45,9,2.58a7.62,7.62,0,0,1,2.57,6.13v22.54a10.27,10.27,0,0,0,3.24,7.89,12.26,12.26,0,0,0,7.74,2.94h34.91a20,20,0,0,0,20-19.77V105.14c0-2,1.73-2.57,3.18-2.68l.41,0,.06,0c6.22-.68,15.18-4.72,15.18-10.16A9.7,9.7,0,0,0,193.35,85.53Z"/></svg>