<?xml version="1.0" encoding="utf-8"?>
<!-- Generator: Adobe Illustrator 22.1.0, SVG Export Plug-In . SVG Version: 6.00 Build 0)  -->
<svg version="1.1" id="Layer_1" xmlns="http://www.w3.org/2000/svg" xmlns:xlink="http://www.w3.org/1999/xlink" x="0px" y="0px"
	 viewBox="0 0 224 90.1" style="enable-background:new 0 0 224 90.1;" xml:space="preserve">
<style type="text/css">
	.st0{fill:#5F0419;}
	.st1{fill:#EE3424;}
</style>
<g>
	<title>hotels-logo</title>
	<path class="st0" d="M159.8,55.5c-1,1.1-1.8,2.2-2.9,3.1c-3.4,3.4-8.6,4.4-13,2.4c-4.7-1.7-7-5.5-7.4-10.3
		c-1-6.6,3.5-12.8,10.1-13.8c2.8-0.4,5.7,0.1,8.1,1.6c0.4,0.3,0.9,0.6,1.3,1c0.9,0.6,1.1,1.8,0.5,2.7c0,0.1-0.1,0.1-0.1,0.2
		c-0.7,0.8-1.9,0.9-2.7,0.2c-0.1-0.1-0.1-0.1-0.2-0.2c-1.9-1.6-4.4-2.2-6.8-1.5c-3.3,0.9-5.7,3.8-5.8,7.3c-0.2,1.9,0.1,3.7,0.9,5.4
		c1.8,3.8,6.3,5.5,10.1,3.8c0.1,0,0.2-0.1,0.2-0.1c2.7-1.4,4.8-3.7,6.1-6.5c0.2-0.8,0.3-1.6,0.2-2.4c0.1-5,3.3-9.3,8-10.9
		c7.4-2.3,15.3,1.7,16,10.5c0.4,4.8-0.9,8.9-4.9,11.9c-4.7,3.5-13.6,3.1-17.4-3.6C160,56,159.9,55.8,159.8,55.5z M178.1,49.5
		c-0.1-0.9-0.2-1.8-0.4-2.7c-0.5-2.9-2.7-5.3-5.6-5.9c-2.9-0.7-5.9,0.5-7.5,2.9c-2.2,3.4-2.2,7.8,0,11.2c2.2,3.3,6.7,4.1,10,1.9
		c0.8-0.5,1.5-1.2,2-2.1C177.6,53.2,178.1,51.4,178.1,49.5z"/>
	<path class="st1" d="M77.6,50.8c0.1,4,3.3,7.3,7.3,7.6c2.3,0.2,4.5-0.4,6.5-1.7c0.8-0.7,2-0.6,2.7,0.2c0,0,0,0,0,0
		c0.6,0.9,0.3,1.9-0.8,2.7c-4.6,3.2-12.6,3.4-17-1.2c-0.1-0.1-0.2-0.2-0.4-0.3c-1.4,1.8-3.4,3-5.6,3.6c-1.1,0.2-2.3,0.2-3.4,0
		c-2.7-0.5-4.2-2.4-4.2-5.5c0-4.6,0-9.1,0-13.7v-1.3c-0.8,0-1.5,0-2.1,0c-1.1,0.1-2.1-0.8-2.2-1.9c0.1-1.1,1-1.9,2.1-1.9
		c0,0,0,0,0.1,0c2.2,0,2.2,0,2.2-2.3c0-0.8,0-1.5,0-2.3c-0.1-1.2,0.8-2.1,2-2.2c0,0,0.1,0,0.1,0c1.1-0.1,2.2,0.7,2.3,1.8
		c0,0.1,0,0.2,0,0.3c0.1,1.2,0,2.5,0,3.7c0,0.7,0.2,1,1,1c0.7,0,1.4,0,2.2,0c1,0,1.8,0.8,1.9,1.8c0,0,0,0,0,0c0,1.1-0.8,1.9-1.8,2
		c0,0,0,0-0.1,0c-0.5,0-1.1,0-1.6,0c-0.5,0-1,0-1.5,0c0,0.5-0.1,0.8-0.1,1.1c0,4.2,0,8.3,0,12.5c0,0.4,0,0.8,0,1.1
		c0.1,1.3,1.1,2.2,2.4,2.2c0.3,0,0.7-0.1,1-0.3c1.2-0.7,2.2-1.5,3.1-2.5c0.2-0.2,0.1-0.8,0-1.2c-1.4-3.9-0.9-8.3,1.3-11.9
		c2.9-4.5,8.4-6.5,13.5-4.9c4.8,1.5,8.1,6,8.1,11c0,1.7-0.7,2.4-2.4,2.5c-3.4,0-6.8,0-10.2,0L77.6,50.8z M92.3,47.7
		c0-2.4-1.3-4.7-3.3-6.1c-2.4-1.6-5.5-1.7-7.9-0.1c-2.2,1.3-3.5,3.7-3.6,6.2L92.3,47.7z"/>
	<path class="st0" d="M190.5,40.7c5.1-5.4,12.3-4.9,14.4,0.5l0.7-0.8c1.8-2.1,4.3-3.3,7-3.5c4.3-0.3,7,2.2,7,6.4
		c0.1,5.3,0,10.7,0,16c0.1,1.2-0.9,2.3-2.1,2.4c0,0-0.1,0-0.1,0c-1.2,0-2.1-1-2.1-2.2c0,0,0-0.1,0-0.1c0-4.1,0-8.2,0-12.4
		c0-0.5,0-1.1,0-1.6c-0.2-3.5-3.2-5.3-6.3-3.5c-1.4,1-2.7,2.2-3.7,3.6c-0.3,0.4-0.4,1-0.3,1.5c0,4.2,0,8.3,0,12.5
		c0.1,1.2-0.8,2.2-2,2.3c-0.1,0-0.1,0-0.2,0c-1.2-0.1-2.2-1.1-2.1-2.3c0-0.3,0-0.5,0-0.8c0-4.3,0-8.5,0-12.8c0-1.6-0.1-3.2-1.8-4
		c-1.7-0.9-3.8-0.7-5.2,0.6c-1.1,1-2,2.1-2.9,3.2c-0.3,0.4-0.4,0.9-0.3,1.5c0,4,0,8.1,0,12.1c0,1.5-0.8,2.5-2.1,2.6
		c-1.3,0-2.2-1-2.2-2.5c0-6.5,0-12.9,0-19.4c0-1.6,0.8-2.5,2.1-2.5s2.1,0.9,2.2,2.5C190.4,40,190.5,40.2,190.5,40.7z"/>
	<path class="st1" d="M26,42.2c0-0.5,0.1-1,0.1-1.5c0-3.4,0-6.7,0-10.1c-0.1-1.3,0.8-2.5,2.1-2.6c0.4,0,0.8,0,1.2,0.2
		c1,0.4,1.6,1.4,1.5,2.4c0,5,0,9.9,0,14.9c0,4.5,0,9.1,0,13.6c0.1,1.1-0.7,2.2-1.8,2.4c-1,0.3-2.1-0.2-2.6-1.1
		c-0.2-0.6-0.4-1.2-0.3-1.9c0-3.6,0-7.2,0-10.8c0-1-0.2-1.3-1.3-1.3c-5.4,0-10.7,0-16.1,0c-0.9,0-1.2,0.3-1.2,1.2
		c0,3.8,0,7.6,0,11.5c0.1,1.3-0.9,2.4-2.2,2.5c-0.4,0-0.8-0.1-1.2-0.2c-0.9-0.4-1.4-1.2-1.4-2.2c0-9.6,0-19.1,0-28.7
		c0-1.3,1.1-2.4,2.4-2.4c1.3,0,2.4,1.1,2.4,2.4c0,3.5,0,7,0,10.5c0,0.7,0,1.2,0.9,1.2c5.6,0,11.3,0,16.9,0
		C25.6,42.2,25.8,42.2,26,42.2z"/>
	<path class="st1" d="M46.6,62c-7.1,0-12-5.2-12-12.6s5.1-12.5,12.1-12.5s12,5.3,12,12.6C58.7,56.7,53.7,62,46.6,62z M54.5,49.5
		l-0.2-0.1c-0.1-0.9-0.2-1.9-0.4-2.8c-0.6-3-3-5.4-6-5.8c-3.1-0.6-6.2,1-7.5,3.8c-1.6,3.1-1.6,6.8,0.1,9.8c1.2,2.4,3.7,3.8,6.3,3.7
		c2.7,0.1,5.1-1.4,6.2-3.8C53.6,52.8,54.1,51.2,54.5,49.5z"/>
	<path class="st1" d="M116.5,62c-3,0.1-6-0.7-8.5-2.4c-1-0.5-1.4-1.7-0.9-2.7c0,0,0-0.1,0.1-0.1c0.6-1,1.7-1.1,2.9-0.3
		c2.4,1.7,5.3,2.4,8.2,2c0.7-0.1,1.3-0.3,1.9-0.6c1.4-0.6,2.1-2.3,1.5-3.7c-0.3-0.6-0.8-1.2-1.4-1.4c-1.7-0.7-3.5-1.3-5.3-1.8
		c-1.4-0.5-2.8-0.8-4.1-1.4c-4.9-2.1-4.5-8.2-1.1-10.7c1.6-1.1,3.5-1.8,5.5-1.9c3-0.3,6,0.5,8.5,2.1c1.3,0.8,1.6,1.8,0.9,2.7
		c-0.7,1-1.6,0.9-2.8,0.2c-2.3-1.5-5.1-2-7.7-1.4c-0.5,0.1-0.9,0.3-1.4,0.5c-1.3,0.5-1.9,2-1.3,3.2c0.3,0.6,0.7,1.1,1.3,1.3
		c1.5,0.6,3.1,1.1,4.7,1.5c1.5,0.5,3.1,0.8,4.5,1.5c2.3,0.8,3.9,3,4,5.4c0.3,2.7-1.1,5.2-3.5,6.5C120.6,61.6,118.6,62.1,116.5,62z"
		/>
	<path class="st1" d="M99.5,44.8c0-4.8,0-9.6,0-14.4c-0.1-1.2,0.8-2.3,2-2.4c0.1,0,0.1,0,0.2,0c1.2,0,2.2,1.1,2.2,2.3
		c0,0,0,0.1,0,0.1v27.9c0,0.4,0,0.8,0,1.1c0,1.2-1,2.1-2.2,2.1c-1.2,0-2.1-1-2.1-2.2l0,0C99.5,54.5,99.5,49.7,99.5,44.8z"/>
	<path class="st0" d="M128.9,58.8c0-1.6,1.3-2.9,2.9-2.9c0.1,0,0.1,0,0.2,0c1.7,0,3,1.4,2.9,3.1c-0.1,1.6-1.5,2.9-3.1,2.9
		C130.2,61.8,128.9,60.5,128.9,58.8z"/>
</g>
</svg>
