<svg id="圖層_1" data-name="圖層 1" xmlns="http://www.w3.org/2000/svg" viewBox="0 0 200 200"><defs><style>.cls-1{fill:#aeca37;}</style></defs><title>icons</title><path class="cls-1" d="M177.61,174.48H25.25V107.55L51,81.84A10.22,10.22,0,0,0,56.7,83.6a10.09,10.09,0,0,0,2.93-.47l40.58,40.58a10.14,10.14,0,0,0-.47,2.92,10.25,10.25,0,1,0,20.49,0,9.93,9.93,0,0,0-.43-2.74L180,65.55a3.39,3.39,0,1,0-4.73-4.87l-59.38,57.59a10.19,10.19,0,0,0-11.61-.11L65.19,79.1a10.24,10.24,0,1,0-18.73-5.74,10.43,10.43,0,0,0,.47,2.92L25.25,98V22.13a3.39,3.39,0,1,0-6.78,0v84h0v71.72a3.4,3.4,0,0,0,3.39,3.4H177.61a3.4,3.4,0,0,0,0-6.79Z"/><path class="cls-1" d="M177.61,182.26H21.86a4.4,4.4,0,0,1-4.39-4.39V22.13a4.39,4.39,0,1,1,8.78,0V95.55L45.81,76a10.47,10.47,0,0,1-.35-2.63,11.25,11.25,0,1,1,21,5.6l37.93,37.93a11.34,11.34,0,0,1,11.35.11l58.81-57a4.39,4.39,0,0,1,6.2.1,4.39,4.39,0,0,1-.09,6.21L120.92,124.2a10.25,10.25,0,0,1,.31,2.43,11.25,11.25,0,1,1-22.49,0,10.4,10.4,0,0,1,.35-2.62L59.34,84.25a10.49,10.49,0,0,1-2.64.35,11.11,11.11,0,0,1-5.59-1.49L26.25,108v65.52H177.61a4.39,4.39,0,0,1,0,8.78ZM21.86,19.73a2.4,2.4,0,0,0-2.39,2.4V177.87a2.39,2.39,0,0,0,2.39,2.39H177.61a2.39,2.39,0,0,0,0-4.78H24.25V107.14L50.84,80.55l.68.47A9.17,9.17,0,0,0,56.7,82.6a8.84,8.84,0,0,0,2.64-.43l.58-.17,41.42,41.43-.17.57a9.11,9.11,0,0,0-.43,2.63,9.25,9.25,0,1,0,18.49,0,9.12,9.12,0,0,0-.39-2.47l-.16-.58,60.59-58.75a2.36,2.36,0,0,0,.73-1.68,2.44,2.44,0,0,0-.68-1.7,2.39,2.39,0,0,0-3.38-.05l-60,58.17-.68-.48a9.18,9.18,0,0,0-10.47-.1l-.69.46L63.9,79.22l.46-.68A9.29,9.29,0,1,0,47.89,76l.17.57L24.25,100.38V22.13A2.4,2.4,0,0,0,21.86,19.73Z"/><circle cx="57.02" cy="73.29" r="11.27"/><circle cx="109.76" cy="126.71" r="11.27"/></svg>