<svg id="圖層_1" data-name="圖層 1" xmlns="http://www.w3.org/2000/svg" viewBox="0 0 200 200"><defs><style>.cls-1{fill:#aeca37;}</style></defs><title>icons</title><path class="cls-1" d="M169.42,146.42a12.25,12.25,0,0,0-4.36-6.55l-11.21-8.71a8.2,8.2,0,0,1-3.18-6.5V84.46a51.79,51.79,0,0,0-31.62-47.7,50.09,50.09,0,0,0-7-2.38V28.74a13.2,13.2,0,0,0-26.4,0v5.64A51.81,51.81,0,0,0,62.28,47.85,51.61,51.61,0,0,0,47.11,84.46v40.2a8.2,8.2,0,0,1-3.18,6.5l-11.21,8.71A12.34,12.34,0,0,0,40.3,162H157.48a12.3,12.3,0,0,0,11.68-8.33A12.4,12.4,0,0,0,169.42,146.42ZM95,28.4a3.95,3.95,0,1,1,7.89,0v3.4H95Zm66.1,122.44a3.72,3.72,0,0,1-3.57,2.55H40.3A3.77,3.77,0,0,1,38,146.64l11.21-8.72a16.68,16.68,0,0,0,6.48-13.26V84.46a43.21,43.21,0,1,1,86.42,0v40.2a16.66,16.66,0,0,0,6.49,13.26l11.21,8.72A3.73,3.73,0,0,1,161.05,150.84Z"/><path d="M82.09,169.21a16.8,16.8,0,0,0,33.6,0Z"/><path class="cls-1" d="M50.39,28.74a3.88,3.88,0,0,0-2.48.88,81.21,81.21,0,0,0-20,23.76,80.32,80.32,0,0,0-9.65,30.31A3.94,3.94,0,0,0,21.77,88l.44,0a4,4,0,0,0,3.92-3.52,72.7,72.7,0,0,1,26.74-48.8,3.94,3.94,0,0,0-2.48-7Z"/><path class="cls-1" d="M147.39,28.74a3.95,3.95,0,0,0-2.48,7,72.73,72.73,0,0,1,26.75,48.8,3.92,3.92,0,0,0,3.91,3.51,3.17,3.17,0,0,0,.44,0,4,4,0,0,0,2.65-1.45,4,4,0,0,0,.84-2.9,81,81,0,0,0-29.63-54.07A3.93,3.93,0,0,0,147.39,28.74Z"/></svg>