<svg id="圖層_1" data-name="圖層 1" xmlns="http://www.w3.org/2000/svg" viewBox="0 0 200 200"><defs><style>.cls-1{fill:#aeca37;}</style></defs><title>icons</title><path class="cls-1" d="M59.88,122a3,3,0,0,1-1.41-.35c-.3-.15-7.46-3.92-14.69-14.65C37.36,97.47,37,89.29,37,89a3.08,3.08,0,1,1,6.15-.21c0,.13.37,6.89,5.72,14.83,6.28,9.31,12.35,12.6,12.42,12.64A3.07,3.07,0,0,1,59.88,122Z"/><path class="cls-1" d="M59.88,123h0a4.07,4.07,0,0,1-1.87-.46c-.3-.16-7.65-4-15.06-15C36.35,97.76,36,89.33,36,89a4.08,4.08,0,0,1,8.15-.27c0,.07.4,6.66,5.55,14.3,6.15,9.11,12,12.28,12,12.31A4.07,4.07,0,0,1,59.89,123ZM40.09,86.77H40a2.08,2.08,0,0,0-2,2.15c0,.33.32,8.19,6.6,17.52,7.12,10.56,14.24,14.29,14.32,14.32a2,2,0,0,0,1,.24,2.08,2.08,0,0,0,2-2.69,2,2,0,0,0-1-1.22h0s-6.33-3.39-12.79-13c-5.55-8.24-5.89-15.32-5.89-15.39a2,2,0,0,0-.66-1.41A2.08,2.08,0,0,0,40.09,86.77Z"/><path class="cls-1" d="M85.59,158.23a72.46,72.46,0,1,1,72.46-72.46A72.54,72.54,0,0,1,85.59,158.23Zm0-135.91a63.46,63.46,0,1,0,63.46,63.45A63.52,63.52,0,0,0,85.59,22.32Z"/><path d="M181,177.14l0,0-31.34-31.34,0,0,0,0,0,0h0a4.83,4.83,0,0,0-6.77,6.88l.09.07L174,183.89a.5.5,0,0,1,.07.08,4.83,4.83,0,1,0,6.84-6.83Z"/></svg>