<svg id="圖層_1" data-name="圖層 1" xmlns="http://www.w3.org/2000/svg" viewBox="0 0 546.65 190.72"><defs><style>.cls-1{fill:none;stroke:#a7c13d;stroke-miterlimit:10;stroke-width:9px;}.cls-2{fill:#231815;}.cls-3{fill:#fff;}</style></defs><title>logo</title><circle class="cls-1" cx="89.87" cy="95.36" r="45.02"/><circle class="cls-2" cx="100.22" cy="88.99" r="20.73"/><circle class="cls-3" cx="110.02" cy="79.22" r="8.13"/><path class="cls-2" d="M253,127.37H229.54v9.3h-7.48V53.93H253ZM229.54,61V75.85h15.82V61Zm0,36.88h15.82V82.69H229.54Zm15.82,22.34v-15.5H229.54v15.5Zm70.45-56.12H296.35v69.48c0,5.45-1.39,8.13-5.23,9.41s-10.48,1.5-20.74,1.5a30.13,30.13,0,0,0-3.32-8.34c8.13.32,15.93.32,18.28.1,2,0,2.89-.74,2.89-2.78V64.09H257.87V56.28h57.94Z"/><path class="cls-2" d="M380.16,107.17c-.42,2.88-1,5.66-1.6,8.23h37.31s-.11,2.14-.22,3.21c-1.49,15-3.1,21.27-5.77,23.83-1.82,1.82-3.95,2.46-7.05,2.57a121.41,121.41,0,0,1-13.47-.21,17.8,17.8,0,0,0-2.14-6.74c5.34.54,10.58.54,12.4.54s3,0,3.95-.86c1.5-1.6,2.78-6,4-15.93h-31c-4.17,10.69-12.19,18.6-28.33,23.41a20.68,20.68,0,0,0-4.38-6.2c20.74-5.66,26.19-16.57,28.33-31.85H349C347.67,120.53,344,135,336,145.54a28.29,28.29,0,0,0-5.88-5.45c11-14.86,12-35.81,12-51.52V55.32h.1c24-1.39,52.39-4.17,68.1-7.8l6.2,6c-17.53,3.85-43.4,6.42-66.6,7.81V67h69.38V90.49H349.91c0,3.1-.11,6.63-.32,10.16h33.89a44.9,44.9,0,0,0-4.71-7.81l7.49-2a47.7,47.7,0,0,1,6,9.84h34.64v6.52ZM349.91,73.39V84.08h61.57V73.39Z"/><path class="cls-2" d="M453.6,116.68a144.32,144.32,0,0,1-5.23,25.76,35.4,35.4,0,0,0-5.88-2.13c2.35-6.63,3.95-16,5-24.59Zm21.17-28.75a175.37,175.37,0,0,1,7.16,20.41l-6,2.36c-.32-1.5-.86-3.32-1.29-5.14-23.83,3.75-27,4.49-29.07,5.56a35.07,35.07,0,0,0-2.25-7c2.14-.42,4.49-3.1,7.59-7.16a135.21,135.21,0,0,0,8.77-12.5c-11.12,1.28-13.36,1.81-14.75,2.56-.43-1.5-1.5-5-2.25-6.84,1.71-.43,3.53-2.67,5.67-5.88a142.18,142.18,0,0,0,13.68-26.94l6.73,2.89A167.7,167.7,0,0,1,452.64,79l11.23-1.07a161.08,161.08,0,0,0,7.8-14.75l6.2,3.74a217.45,217.45,0,0,1-23.41,35.49l18.39-2.57c-1.18-3.42-2.57-6.84-3.75-9.94Zm-10.69,27.36a161.91,161.91,0,0,1,3,22.45l-6,1.5a208.57,208.57,0,0,0-2.57-22.88Zm11.23-2.78c2.45,6.63,5.23,15.08,6.3,20.53l-5.56,2a156.1,156.1,0,0,0-6-20.74ZM537.73,136c0,4.38-.85,6.31-3.63,7.59-2.57,1.28-7,1.39-13.47,1.39a29.48,29.48,0,0,0-2-7.06c4.49.22,8.77.11,10,.11s1.81-.53,1.81-2V59.49h-40v85.63h-7.16V52.44h54.41Zm-17.21-17.64a30.62,30.62,0,0,0,6.31-.53c.21,1.82.43,4.27.64,5.88a29.29,29.29,0,0,1-6.84.53H507c-7.06,0-8.66-2.56-8.66-9.62V104.28h-4V98h14.54a66.09,66.09,0,0,0-4.17-9.4l4.92-1.93H493.26v-6.3h20.31a117,117,0,0,0,5-17.64l5.77,1.71c-1.6,5.24-3.53,11.33-5.24,15.93h9.09v6.3h-18a85.78,85.78,0,0,1,4.7,9.62L511.12,98h15.82v6.31h-22v10.48c0,2.78.32,3.63,2.56,3.63Zm-18.7-55.91c2.67,4.71,5.13,11,5.77,15.18l-5.13,1.82a58,58,0,0,0-5.56-15.29Z"/><line class="cls-1" x1="89.87" y1="11.57" x2="89.87" y2="50.56"/><line class="cls-1" x1="89.87" y1="140.16" x2="89.87" y2="179.15"/><line class="cls-1" x1="5.48" y1="95.36" x2="44.47" y2="95.36"/><line class="cls-1" x1="135.23" y1="95.36" x2="174.21" y2="95.36"/><circle class="cls-1" cx="89.87" cy="95.36" r="45.02"/><circle class="cls-1" cx="89.87" cy="95.36" r="64.75"/></svg>