<svg id="圖層_1" data-name="圖層 1" xmlns="http://www.w3.org/2000/svg" viewBox="0 0 566.93 447.87"><defs><style>.cls-1{fill:#f4f4f4;}.cls-2{fill:#b7b8b8;}</style></defs><title>noimg</title><rect class="cls-1" width="566.93" height="447.87"/><path class="cls-2" d="M335,281H234.67a19.52,19.52,0,0,1-19.5-19.5v-75A19.52,19.52,0,0,1,234.67,167h3.9a2.92,2.92,0,1,1,0,5.83h-3.9A13.68,13.68,0,0,0,221,186.49v75a13.68,13.68,0,0,0,13.67,13.67H335A13.68,13.68,0,0,0,348.7,261.5v-75A13.68,13.68,0,0,0,335,172.83h-56.2a2.92,2.92,0,0,1,0-5.83H335a19.51,19.51,0,0,1,19.49,19.49v75A19.51,19.51,0,0,1,335,281Z"/><path class="cls-2" d="M237.26,250.69a2.91,2.91,0,0,1-2.72-4L253,199.3a2.92,2.92,0,0,1,5.19-.5l22,34.86,18.26-20.53a2.91,2.91,0,0,1,4-.32l30.46,24.82a2.92,2.92,0,1,1-3.69,4.52L300.9,219.09l-19,21.34a2.91,2.91,0,0,1-4.11.24,2.86,2.86,0,0,1-.53-.63l-21-33.24-16.34,42a2.9,2.9,0,0,1-2.71,1.86Zm83.34-40A14.72,14.72,0,1,1,335.32,196,14.72,14.72,0,0,1,320.6,210.7Zm0-23.61a8.89,8.89,0,1,0,8.89,8.89A8.88,8.88,0,0,0,320.6,187.09Z"/></svg>