<svg id="圖層_1" data-name="圖層 1" xmlns="http://www.w3.org/2000/svg" viewBox="0 0 120.56 109.27"><defs><style>.cls-1{fill:#f6f6f6;}.cls-2{fill:#ededed;}.cls-3{fill:#fff;}.cls-4{fill:#dedfdf;}.cls-5{fill:#f9e19b;}.cls-6{fill:#f5bb1f;}</style></defs><title>none-bg</title><path class="cls-1" d="M5.81,50.87a3,3,0,1,0,3,3A3,3,0,0,0,5.81,50.87Z"/><path class="cls-1" d="M85.74,77.44H95.91a39.54,39.54,0,0,0-69.2-38H19.85a3,3,0,1,0,0,5.93H38.36a3,3,0,0,1,1.45,5.54H13.29a3,3,0,1,0,0,5.93h7.62c-.1,1.15-.17,2.3-.17,3.48A39.53,39.53,0,0,0,92.36,83.37H85.74a3,3,0,0,1,0-5.93Z"/><path class="cls-2" d="M104.92,83.46l-.26,0v0H103a3,3,0,0,0,0,5.93h1.68v0a2.3,2.3,0,0,0,.26,0,3,3,0,0,0,0-5.93Z"/><path class="cls-2" d="M95.51,83.37H85.74a3,3,0,0,1,0-5.93h19.18a3,3,0,0,0,0-5.93H98.17c.29-1,.55-1.94.76-2.93-32.39-7.57-60.21-4-77.09,1A39.5,39.5,0,0,0,87.09,89.3h8.42a3,3,0,0,0,0-5.93Z"/><path class="cls-3" d="M73.12,41.13H47.43a2.42,2.42,0,0,0-2.19,2.6v5a2.17,2.17,0,0,1,0,4.27v3.68a2.17,2.17,0,0,1,0,4.27v3.68a2.17,2.17,0,0,1,0,4.27v5.24a2.42,2.42,0,0,0,2.19,2.6H73.12a2.42,2.42,0,0,0,2.2-2.6V43.73A2.42,2.42,0,0,0,73.12,41.13Z"/><path class="cls-4" d="M73.12,77.44H47.43a3.08,3.08,0,0,1-2.79-3.31V68.89a.65.65,0,0,1,.6-.71,1.45,1.45,0,0,0,0-2.85.66.66,0,0,1-.6-.71V60.94a.66.66,0,0,1,.6-.71,1.45,1.45,0,0,0,0-2.85.66.66,0,0,1-.6-.71V53a.66.66,0,0,1,.6-.71,1.45,1.45,0,0,0,0-2.85.66.66,0,0,1-.6-.71v-5a3.09,3.09,0,0,1,2.79-3.32H73.12a3.09,3.09,0,0,1,2.8,3.32v30.4A3.08,3.08,0,0,1,73.12,77.44ZM45.84,69.51v4.62A1.76,1.76,0,0,0,47.43,76H73.12a1.77,1.77,0,0,0,1.6-1.89V43.73a1.76,1.76,0,0,0-1.6-1.89H47.43a1.75,1.75,0,0,0-1.59,1.89V48.1a3,3,0,0,1,0,5.51v2.44a3,3,0,0,1,0,5.51V64a3,3,0,0,1,0,5.52Z"/><path class="cls-4" d="M69.92,49.83H50.64a.6.6,0,0,1,0-1.2H69.92a.6.6,0,0,1,0,1.2Z"/><path class="cls-4" d="M69.92,56.55H50.64a.6.6,0,1,1,0-1.2H69.92a.6.6,0,1,1,0,1.2Z"/><path class="cls-4" d="M69.92,63.24H50.64a.6.6,0,0,1-.6-.6.6.6,0,0,1,.6-.6H69.92a.6.6,0,0,1,.6.6A.6.6,0,0,1,69.92,63.24Z"/><path class="cls-4" d="M69.92,69.79H50.64a.6.6,0,0,1,0-1.2H69.92a.6.6,0,0,1,0,1.2Z"/><path class="cls-5" d="M81,45.19a2.3,2.3,0,0,0-3.21-.81l0,0-5.22,3L52.34,58.87l-3.12,3.77a.6.6,0,0,0,.55,1l4.89-.68L74.82,51.45l5.22-3A2.4,2.4,0,0,0,81,45.19Z"/><path class="cls-6" d="M49.64,64.23a1.21,1.21,0,0,1-.88-2l3.18-3.86L77.42,43.87a2.93,2.93,0,0,1,4.07,1h0A3,3,0,0,1,80.34,49L54.86,63.52l-5,.7Zm3.09-4.89-3,3.69,4.77-.67L79.75,48a1.81,1.81,0,0,0,.69-2.46h0a1.7,1.7,0,0,0-2.4-.58Z"/></svg>