<svg id="圖層_1" data-name="圖層 1" xmlns="http://www.w3.org/2000/svg" viewBox="0 0 200 200"><defs><style>.cls-1{fill:#7d7d7d;}</style></defs><title>notice</title><path class="cls-1" d="M89.55,178.18a11.63,11.63,0,0,0-.15,1.88,12.18,12.18,0,0,0,24.35,0,11.63,11.63,0,0,0-.15-1.88Z"/><path class="cls-1" d="M190.77,161.05h-19V92.4a70.18,70.18,0,0,0-64.67-70V14.83a5.5,5.5,0,1,0-11,0v7.61a70.18,70.18,0,0,0-64.66,70v68.65h-19a4,4,0,1,0,0,8.09H190.77a4,4,0,1,0,0-8.09ZM39.5,92.4a62.08,62.08,0,1,1,124.15,0v68.65H39.5V92.4Z"/></svg>