<svg id="圖層_1" data-name="圖層 1" xmlns="http://www.w3.org/2000/svg" viewBox="0 0 120.56 109.27"><defs><style>.cls-1{fill:#f6f6f6;}.cls-2{fill:#ededed;}.cls-3{fill:#cfd7db;}.cls-4{fill:#fff;}.cls-5{fill:#f9e19b;}.cls-6{fill:#f5bb1f;}</style></defs><title>notice-bg</title><path class="cls-1" d="M5.81,50.87a3,3,0,1,0,3,3A3,3,0,0,0,5.81,50.87Z"/><path class="cls-1" d="M85.74,77.44H95.91a39.54,39.54,0,0,0-69.2-38H19.85a3,3,0,1,0,0,5.93H38.36a3,3,0,0,1,1.45,5.54H13.29a3,3,0,1,0,0,5.93h7.62c-.1,1.15-.17,2.3-.17,3.48A39.53,39.53,0,0,0,92.36,83.37H85.74a3,3,0,0,1,0-5.93Z"/><path class="cls-2" d="M104.92,83.46l-.26,0v0H103a3,3,0,0,0,0,5.93h1.68v0a2.3,2.3,0,0,0,.26,0,3,3,0,0,0,0-5.93Z"/><path class="cls-2" d="M95.51,83.37H85.74a3,3,0,0,1,0-5.93h19.18a3,3,0,0,0,0-5.93H98.17c.29-1,.55-1.94.76-2.93-32.39-7.57-60.21-4-77.09,1A39.5,39.5,0,0,0,87.09,89.3h8.42a3,3,0,0,0,0-5.93Z"/><path class="cls-3" d="M40.43,51.92,59.72,35.73a.77.77,0,0,1,1.08.06.76.76,0,0,1-.14,1.06L41.37,53a.73.73,0,1,1-.94-1.12Z"/><path class="cls-3" d="M80.13,51.92,60.83,35.73a.73.73,0,1,0-.94,1.12L79.19,53a.73.73,0,1,0,.94-1.12Z"/><path class="cls-4" d="M48.41,48.88H42.17c-1.71,0-3.1.9-3.1,2V74.25c0,1.1,1.39,2,3.1,2H78.39c1.71,0,3.1-.9,3.1-2V50.88c0-1.1-1.39-2-3.1-2h-30Z"/><path class="cls-3" d="M78.39,77H42.17c-2.15,0-3.83-1.2-3.83-2.73V50.88c0-1.53,1.68-2.73,3.83-2.73H78.39c2.15,0,3.83,1.2,3.83,2.73V74.25C82.22,75.78,80.54,77,78.39,77ZM42.17,49.61c-1.36,0-2.37.67-2.37,1.27V74.25c0,.6,1,1.27,2.37,1.27H78.39c1.35,0,2.37-.67,2.37-1.27V50.88c0-.6-1-1.27-2.37-1.27Z"/><circle class="cls-5" cx="47.6" cy="62.88" r="2.06"/><path class="cls-6" d="M47.6,65.67a2.79,2.79,0,1,1,2.78-2.79A2.8,2.8,0,0,1,47.6,65.67Zm0-4.12a1.33,1.33,0,1,0,1.32,1.33A1.32,1.32,0,0,0,47.6,61.55Z"/><circle class="cls-5" cx="56.05" cy="62.88" r="2.06"/><path class="cls-6" d="M56.05,65.67a2.79,2.79,0,1,1,2.79-2.79A2.8,2.8,0,0,1,56.05,65.67Zm0-4.12a1.33,1.33,0,1,0,1.33,1.33A1.33,1.33,0,0,0,56.05,61.55Z"/><circle class="cls-5" cx="64.51" cy="62.88" r="2.06"/><path class="cls-6" d="M64.51,65.67a2.79,2.79,0,1,1,2.79-2.79A2.8,2.8,0,0,1,64.51,65.67Zm0-4.12a1.33,1.33,0,1,0,1.32,1.33A1.32,1.32,0,0,0,64.51,61.55Z"/><circle class="cls-5" cx="72.96" cy="62.88" r="2.06"/><path class="cls-6" d="M73,65.67a2.79,2.79,0,1,1,2.79-2.79A2.8,2.8,0,0,1,73,65.67Zm0-4.12a1.33,1.33,0,1,0,1.33,1.33A1.33,1.33,0,0,0,73,61.55Z"/></svg>