<svg id="圖層_1" data-name="圖層 1" xmlns="http://www.w3.org/2000/svg" viewBox="0 0 200 200"><defs><style>.cls-1{fill:#8a8a8a;}</style></defs><title>notice-border</title><path class="cls-1" d="M114.08,171.21H85.27l-.76,2.51a15.7,15.7,0,0,0-.69,4.61,15.86,15.86,0,1,0,31.71,0,15.7,15.7,0,0,0-.69-4.61Zm-5.61,7.06v.06a8.8,8.8,0,1,1-17.59,0v-.06Z"/><path class="cls-1" d="M192.15,155.62H169.32V88.13a84.79,84.79,0,0,0-8.6-34.49C153.63,39.46,138.9,22.1,108.89,19.2l-.09-5.71V13.3c-.22-2.59-2.35-7.49-8.82-7.49a8.59,8.59,0,0,0-8.89,7.85L91,19.18C74.55,20.75,61.1,26.77,51,37.1,30.94,57.7,31.48,87.77,31.51,89v66.63H7.85a3.53,3.53,0,0,0-1.7,6.62v.44H193.78v-.4a3.53,3.53,0,0,0-1.63-6.66ZM162.27,88.13v67.5H38.57V88.92c0-.28-.37-28.57,17.54-46.92C66.59,31.27,81.34,25.83,100,25.83c25.81,0,44.11,10.38,54.39,30.85A79.85,79.85,0,0,1,162.27,88.13ZM98.08,18.79l0-4.58c.14-.89.76-1.34,1.85-1.34s1.65.33,1.78,1l.07,4.93-1.86,0Z"/></svg>