<?xml version="1.0" encoding="utf-8"?>
<!-- Generator: Adobe Illustrator 22.1.0, SVG Export Plug-In . SVG Version: 6.00 Build 0)  -->
<svg version="1.1" id="圖層_1" xmlns="http://www.w3.org/2000/svg" xmlns:xlink="http://www.w3.org/1999/xlink" x="0px" y="0px"
	 viewBox="0 0 199.7 199.7" style="enable-background:new 0 0 199.7 199.7;" xml:space="preserve">
<style type="text/css">
	.st0{fill:#8A8A8A;}
</style>
<title>track-bg</title>
<g>
	<path class="st0" d="M99.9,69.4L99.9,69.4C83,69.4,69.4,83,69.4,99.9c0,16.8,13.7,30.5,30.5,30.5c16.8,0,30.5-13.7,30.5-30.5
		C130.3,83.1,116.6,69.4,99.9,69.4z M99.8,123.3c-12.9,0-23.5-10.5-23.5-23.5c0-12.9,10.5-23.5,23.5-23.5
		c12.9,0,23.5,10.5,23.5,23.5C123.3,112.8,112.8,123.3,99.8,123.3z"/>
	<path class="st0" d="M198,96.4h-14.6c-1.8-43.3-36.7-78.2-80-80V1.7h-7v14.6c-43.3,1.8-78.2,36.7-80,80H1.7v7h14.6
		c1.8,43.3,36.7,78.2,80,80V198h7v-14.6c43.3-1.8,78.2-36.7,80-80H198V96.4z M103.3,176.4v-18.5h-7v18.5c-39.5-1.8-71.2-33.6-73-73
		h18.5v-7H23.3c1.8-39.5,33.6-71.2,73-73v18.5h7V23.3c39.5,1.8,71.2,33.6,73,73h-18.5v7h18.5C174.6,142.8,142.8,174.6,103.3,176.4z"
		/>
</g>
</svg>
