<svg id="圖層_1" data-name="圖層 1" xmlns="http://www.w3.org/2000/svg" viewBox="0 0 200 200"><defs><style>.cls-1{fill:#fff;}</style></defs><title>track-border</title><path class="cls-1" d="M100,70a30,30,0,1,0,30,30A30,30,0,0,0,100,70Zm0,51a21,21,0,1,1,21-21A21,21,0,0,1,100,121Z"/><path class="cls-1" d="M190,95.5H169.76A70,70,0,0,0,104.5,30.24V10.05h-9V30.24A70,70,0,0,0,30.24,95.5H10.05v9H30.24A70,70,0,0,0,95.5,169.76V190h9V169.76a70,70,0,0,0,65.26-65.26H190ZM104.5,160.74v-13.5h-9v13.5A61,61,0,0,1,39.26,104.5h13.5v-9H39.26A61,61,0,0,1,95.5,39.26v13.5h9V39.26A61,61,0,0,1,160.74,95.5h-13.5v9h13.5A61,61,0,0,1,104.5,160.74Z"/></svg>