<svg id="圖層_1" data-name="圖層 1" xmlns="http://www.w3.org/2000/svg" viewBox="0 0 200 200"><defs><style>.cls-1{fill:#8a8a8a;}</style></defs><title>travel</title><path class="cls-1" d="M169.58,44.19H138.5v-.28c0-10-6.84-17.86-15.58-17.86H77.08c-8.73,0-15.58,7.84-15.58,17.86v.28H30.42c-8.71,0-15.8,8.12-15.8,18.09V149.4c0,10,7.09,18.1,15.8,18.1H49v6.33h6.17V167.5h89.66V174H151V167.5h18.58c8.71,0,15.8-8.12,15.8-18.1V62.28C185.38,52.31,178.29,44.19,169.58,44.19Zm-37.25,0H67.67v-.28c0-6,4.13-10.79,9.41-10.79h45.84c5.28,0,9.41,4.74,9.41,10.79Zm37.25,7.07c5.31,0,9.63,4.94,9.63,11V149.4c0,6.09-4.32,11-9.63,11H30.42c-5.31,0-9.63-4.94-9.63-11V62.28c0-6.08,4.32-11,9.63-11Z"/><rect class="cls-1" x="53.65" y="64.11" width="6.17" height="84.06"/><rect class="cls-1" x="139.07" y="63.59" width="6.17" height="85.62"/></svg>