<?xml version="1.0" encoding="utf-8"?>
<!-- Generator: Adobe Illustrator 22.1.0, SVG Export Plug-In . SVG Version: 6.00 Build 0)  -->
<svg version="1.1" id="圖層_1" xmlns="http://www.w3.org/2000/svg" xmlns:xlink="http://www.w3.org/1999/xlink" x="0px" y="0px"
	 viewBox="0 0 200 200" style="enable-background:new 0 0 200 200;" xml:space="preserve">
<style type="text/css">
	.st0{fill:#666464;}
</style>
<title>travelers</title>
<path class="st0" d="M168,102.2c-4.7-5.3-11.5-11.2-20-14.9c9.4-6.3,15.6-17,15.6-29.2c0-19.3-15.7-35.1-35.1-35.1
	c-12.6,0-23.6,6.6-29.8,16.6c0.1,0.1,0.3,0.2,0.4,0.3c-6.1-3.6-13.3-5.7-20.9-5.7c-22.6,0-41,18.4-41,41c0,15,8.1,28.1,20.1,35.2
	c-11.4,4.9-19.8,12.7-25.5,19.7c-9.9,12.2-15.5,27-14.4,32.6v0c2.3,10.7,34.3,14.2,60.8,14.2c4.9,0,9.6-0.1,13.9-0.3
	c14.5-0.7,48.4-3.6,49.6-14.9c0.4-3.6-1.5-10-5.3-17.1c1.3,0,2.5-0.1,3.7-0.1c11.3-0.6,21.2-1.8,28.4-3.7c9-2.3,13.5-5.3,14-9.2
	C183.2,125.9,177.5,112.8,168,102.2z M128.5,26.5c17.4,0,31.6,14.2,31.6,31.6s-14.2,31.6-31.6,31.6c-3.9,0-7.7-0.7-11.1-2
	c1.2-3.9,1.9-8.1,1.9-12.4c0-13.9-7-26.3-17.7-33.7C107.2,32.5,117.2,26.5,128.5,26.5z M40.8,75.2c0-20.7,16.8-37.5,37.5-37.5
	s37.5,16.8,37.5,37.5S99,112.8,78.3,112.8S40.8,95.9,40.8,75.2z M138.3,161.3c-0.5,4.6-15.2,10.3-46.3,11.8
	c-36.2,1.8-69.4-3.4-71.1-11.1v0c-0.8-3.6,3.3-16.9,13.6-29.7c5.9-7.2,14.7-15.3,26.9-19.8c5.2,2.3,10.9,3.6,16.9,3.6
	c6.6,0,12.8-1.6,18.3-4.3c11,3.9,19.5,11.3,25.4,17.8C132.9,142,138.8,156.3,138.3,161.3z M179.2,131.1c-0.4,3.9-14,8.6-39.1,9.8
	c-1.8,0.1-3.7,0.2-5.5,0.2c-2.7-4.6-6-9.3-9.9-13.7c-5.7-6.3-13.7-13.5-24.1-17.8c6.9-4.5,12.4-11,15.6-18.7c3.8,1.4,8,2.2,12.3,2.2
	c5.6,0,10.9-1.3,15.6-3.6c9.2,3.3,16.4,9.5,21.3,15C174.6,114.8,179.6,126.9,179.2,131.1z"/>
</svg>
