<svg id="圖層_1" data-name="圖層 1" xmlns="http://www.w3.org/2000/svg" viewBox="0 0 200 200"><defs><style>.cls-1{fill:#8a8a8a;}</style></defs><title>travel</title><path class="cls-1" d="M169.58,51.29H138.5V51a15.41,15.41,0,0,0-15.58-15.58H77.08A15.42,15.42,0,0,0,61.5,51v.25H30.42a15.81,15.81,0,0,0-15.8,15.79v76a15.81,15.81,0,0,0,15.8,15.79H49v5.53h6.17v-5.53h89.66v5.63H151v-5.63h18.58a15.81,15.81,0,0,0,15.8-15.79v-76A15.81,15.81,0,0,0,169.58,51.29Zm-37.25,0H67.67V51a9.31,9.31,0,0,1,9.41-9.42h45.84A9.31,9.31,0,0,1,132.33,51Zm37.25,6.17a9.63,9.63,0,0,1,9.63,9.62v76a9.64,9.64,0,0,1-9.63,9.63H30.42a9.64,9.64,0,0,1-9.63-9.63v-76a9.63,9.63,0,0,1,9.63-9.62Z"/><rect class="cls-1" x="54.21" y="62.4" width="6.17" height="84.06"/><rect class="cls-1" x="139.63" y="61.88" width="6.17" height="85.62"/></svg>