<svg id="Layer_1" data-name="Layer 1" xmlns="http://www.w3.org/2000/svg" viewBox="0 0 224 90.1"><defs><style>.cls-1{fill:#2681ff;}.cls-2{fill:#ffb300;}</style></defs><title>trip-logo</title><path class="cls-1" d="M223.12,60c-2.45,0-4.9,0-7.35,0-1,0-1.32-.33-1.32-1.31,0-5,0-10,0-14.93a5.49,5.49,0,0,0-.35-2.23,3.85,3.85,0,0,0-4.42-2.3,3.89,3.89,0,0,0-3,3.53c-.07,2.16,0,4.33,0,6.49v9.31c0,1.36-.07,1.42-1.38,1.42-2,0-4,0-5.95,0-1,0-1.39-.32-1.38-1.36.05-4.73,0-9.45,0-14.18a5.72,5.72,0,0,0-1-3.8,3.78,3.78,0,0,0-4.36-1.29A3.91,3.91,0,0,0,190,43.07c0,2.17,0,4.33,0,6.5,0,3.06,0,6.13,0,9.19,0,1-.35,1.33-1.33,1.3-2-.05-4.11,0-6.16,0-.86,0-1.23-.25-1.23-1.17q0-12.93,0-25.86c0-.92.37-1.19,1.23-1.17,1.8,0,3.6,0,5.41,0a1.86,1.86,0,0,1,1.9,1c.26.53.55.38.94.13,4.56-2.85,9.05-2.77,13.41.41.64.46,1,.21,1.49-.17A11.15,11.15,0,0,1,221.75,36a18.36,18.36,0,0,1,1.37,3.28Z"/><path class="cls-1" d="M60.6,19.12a5.58,5.58,0,0,1,3.63,3,4.9,4.9,0,0,1-2.71,6.6,5.34,5.34,0,0,1-7-2.73,5,5,0,0,1,2.68-6.46c.32-.15.66-.27,1-.4Z"/><path class="cls-1" d="M68.81,52.12V33.52c0-1.65,0-1.65,1.7-1.65s3.39,0,5.08,0a1.67,1.67,0,0,1,1.76,1c.28.73.6.49,1,.22a14.42,14.42,0,0,1,10.93-1.74,15.07,15.07,0,0,1-.79,29.41,13.87,13.87,0,0,1-9.8-1.7c-1.21-.7-1.23-.68-1.23.68,0,3.79,0,7.57,0,11.35,0,1-.3,1.35-1.3,1.32q-3-.09-6.06,0c-1,0-1.48-.32-1.35-1.36V52.12ZM84.59,39.23A6.67,6.67,0,0,0,78,46a6.87,6.87,0,0,0,6.62,6.8,6.74,6.74,0,0,0,6.52-6.73A6.5,6.5,0,0,0,84.59,39.23Z"/><path class="cls-1" d="M161.9,61a15,15,0,1,1,15.26-14.92A15.08,15.08,0,0,1,161.9,61Zm.18-21.76a6.46,6.46,0,0,0-6.69,6.55,6.72,6.72,0,0,0,6.51,7A6.81,6.81,0,0,0,168.47,46,6.6,6.6,0,0,0,162.08,39.23Z"/><path class="cls-1" d="M17.35,21.46H31.64c1.77,0,2.15.39,2.16,2.16v3.89c0,1.59,0,1.59-1.65,1.59-2.92,0-5.84,0-8.76,0-1.06,0-1.35.38-1.35,1.39,0,9.16,0,18.32,0,27.48,0,2.09,0,2.09-2.14,2.09H14.84c-1.43,0-1.47,0-1.47-1.44V31.22c0-.32,0-.65,0-1,.07-.84-.3-1.15-1.14-1.15-3,0-5.91,0-8.87,0h-1c-.74,0-.91-.39-.91-1,0-1.84,0-3.68,0-5.52,0-.87.36-1.11,1.17-1.11,3,0,6.06,0,9.09,0Z"/><path class="cls-1" d="M135.36,61c-9.08.25-16.05-6-16.59-13.67-.46-6.59,2.33-11.59,8.07-14.58s11.5-2.34,16.76,1.65c.69.53.69.9.15,1.55-1.32,1.61-2.6,3.27-3.84,4.95-.5.68-.84.8-1.51.15a6.34,6.34,0,0,0-7.4-1.15,7,7,0,0,0-3.65,6.62c.42,3.21,2.33,5.48,5.13,6.12a6,6,0,0,0,6-1.82c.73-.76,1.16-.68,1.79.05,1.34,1.56,2.72,3.08,4.11,4.59.53.57.52,1-.08,1.52A14.82,14.82,0,0,1,135.36,61Z"/><path class="cls-1" d="M33.73,45.86c0-4.22,0-8.43,0-12.65,0-1,.35-1.39,1.38-1.36,1.76.06,3.53,0,5.3,0,.76,0,1.5.15,1.8.91s.69.59,1.21.24A12.35,12.35,0,0,1,50.34,31c.83,0,1.17.3,1.15,1.14q0,3,0,5.94c0,1-.37,1.29-1.3,1.2A6.94,6.94,0,0,0,43.64,42a6,6,0,0,0-1.22,3.73q0,6.27,0,12.54c0,1.75,0,1.75-1.7,1.75H35.43c-1.69,0-1.7,0-1.7-1.64Z"/><path class="cls-1" d="M55.14,46c0-4.25,0-8.5,0-12.75,0-1.05.36-1.39,1.38-1.36,1.73.06,3.46,0,5.19,0,1.42,0,1.94.5,2.1,1.9,0,.32,0,.65,0,1q0,11.9,0,23.78c0,1.49,0,1.52-1.49,1.52-1.95,0-3.89,0-5.84,0-1,0-1.38-.31-1.37-1.35C55.16,54.46,55.14,50.21,55.14,46Z"/><path class="cls-2" d="M104.48,56.41a5.58,5.58,0,0,1,5.73-5.5A5.74,5.74,0,0,1,116,56.45,5.87,5.87,0,0,1,110.17,62,5.67,5.67,0,0,1,104.48,56.41Z"/></svg>