<?xml version="1.0" encoding="utf-8"?>
<!-- Generator: Adobe Illustrator 22.1.0, SVG Export Plug-In . SVG Version: 6.00 Build 0)  -->
<svg version="1.1" id="圖層_1" xmlns="http://www.w3.org/2000/svg" xmlns:xlink="http://www.w3.org/1999/xlink" x="0px" y="0px"
	 viewBox="0 0 200 200" style="enable-background:new 0 0 200 200;" xml:space="preserve">
<style type="text/css">
	.st0{fill:#8A8A8A;}
</style>
<g>
	<path class="st0" d="M100,98.8c-26,0-47.1-21.1-47.1-47.1S74,4.6,100,4.6c26,0,47.1,21.1,47.1,47.1S126,98.8,100,98.8z M100,12.2
		c-21.8,0-39.5,17.7-39.5,39.5S78.2,91.1,100,91.1c21.8,0,39.5-17.7,39.5-39.5S121.8,12.2,100,12.2z"/>
</g>
<g>
	<path class="st0" d="M175.1,195.4c-0.1,0-0.3,0-0.4,0l-149.4,0c-5.1,0-9.8-2.2-12.6-5.9c-1.9-2.5-3.7-6.8-1.8-13.1l12.9-48.2
		c2.2-6.6,5.9-14.2,15.2-14.2h121.7c10.7,0,14.1,10.7,15.2,14.3l0,0.2l12.9,48c1.8,6,1.5,10.8-1.1,14.1
		C185.3,193.8,181,195.4,175.1,195.4z M174.6,187.8L174.6,187.8c3.6,0.1,6-0.6,7-1.9c1-1.3,0.9-3.9-0.1-7.4l0-0.1l-12.9-47.9
		c-2.5-7.8-5.3-8.8-7.9-8.8H38.9c-3.1,0-5.5,1.5-7.9,8.9l-12.9,48.1c-0.8,2.6-0.6,4.8,0.6,6.4c1.3,1.7,3.8,2.8,6.4,2.8L174.6,187.8z
		"/>
</g>
</svg>
