<svg id="圖層_1" data-name="圖層 1" xmlns="http://www.w3.org/2000/svg" viewBox="0 0 200 200"><defs><style>.cls-1{fill:#8a8a8a;}</style></defs><title>d</title><path class="cls-1" d="M100,4.57a47.12,47.12,0,1,0,47.11,47.12A47.17,47.17,0,0,0,100,4.57Z"/><path class="cls-1" d="M188.83,176.33l-12.89-48,0-.16c-1.12-3.53-4.52-14.27-15.24-14.27H39c-9.37,0-13.06,7.61-15.23,14.23L10.81,176.4c-1.88,6.31-.07,10.61,1.79,13.1a15.61,15.61,0,0,0,12.59,5.93H175.05c5.95,0,10.22-1.67,12.69-5S190.65,182.32,188.83,176.33Z"/></svg>