<svg id="圖層_1" data-name="圖層 1" xmlns="http://www.w3.org/2000/svg" viewBox="0 0 200 200"><defs><style>.cls-1{fill:#8a8a8a;}</style></defs><title>room-icons</title><path class="cls-1" d="M100,49.85A57.18,57.18,0,1,1,42.83,107,57.24,57.24,0,0,1,100,49.85m0-3.64A60.82,60.82,0,1,0,160.81,107,60.81,60.81,0,0,0,100,46.21Z"/><path class="cls-1" d="M42.36,60.83l-2.88-2.22A77.85,77.85,0,0,1,76.41,32.16l1.16,3.45A74.22,74.22,0,0,0,42.36,60.83Z"/><path class="cls-1" d="M154.67,60.83a74.44,74.44,0,0,0-35.22-25.22l1.17-3.44a78,78,0,0,1,36.93,26.44Z"/><path class="cls-1" d="M133.78,129.37l-35.47-21.1v-31H102v29l33.69,20Z"/></svg>