<svg id="圖層_1" data-name="圖層 1" xmlns="http://www.w3.org/2000/svg" viewBox="0 0 200 200"><defs><style>.cls-1{fill:#8a8a8a;}</style></defs><title>room-icons</title><path class="cls-1" d="M122.32,134.2a19.91,19.91,0,0,1-7.32-1.33,27.48,27.48,0,0,1-5-2.66c-2.19-1.34-4.19-2.57-6.38-3-3.52-.57-7,1.14-10.75,3-3.42,1.71-7,3.42-10.94,3.52-3.52.09-6.75-1.14-9.8-2.29-.76-.28-1.52-.57-2.37-.85a41.87,41.87,0,0,0-27.69,0,1.87,1.87,0,0,1-1.24-3.52,46.19,46.19,0,0,1,30.16.09c.86.29,1.62.57,2.48,1a22.88,22.88,0,0,0,8.37,2.1c3.14-.1,6.18-1.53,9.32-3.14,4.09-2,8.28-4.09,13-3.33,3,.47,5.42,2,7.8,3.42a28.88,28.88,0,0,0,4.37,2.38c5.62,2.19,12,.48,18.18-1.14.76-.19,1.52-.38,2.18-.57,10.37-2.67,17.79-1.71,22.74,3a1.89,1.89,0,1,1-2.57,2.76c-3.9-3.71-10.18-4.37-19.12-2.09l-2.19.57c-4.47.86-8.94,2.09-13.32,2.09Zm0,13.13A19.91,19.91,0,0,1,115,146a27.48,27.48,0,0,1-5-2.66c-2.19-1.34-4.19-2.57-6.38-3-3.52-.57-7,1.14-10.75,3-3.42,1.71-7,3.42-10.94,3.52-3.52.09-6.75-1.15-9.8-2.29-.76-.28-1.52-.57-2.37-.85a41.87,41.87,0,0,0-27.69,0,1.87,1.87,0,0,1-1.24-3.52,46.19,46.19,0,0,1,30.16.09c.86.29,1.62.57,2.48,1a23.08,23.08,0,0,0,8.37,2.1c3.14-.1,6.18-1.53,9.32-3.14,4.09-2,8.28-4.09,13-3.33,3,.47,5.42,2,7.8,3.42a28.88,28.88,0,0,0,4.37,2.38c5.62,2.19,12,.48,18.18-1.14.76-.19,1.52-.38,2.18-.57,10.37-2.67,17.79-1.72,22.74,3a1.89,1.89,0,1,1-2.57,2.76c-3.9-3.71-10.18-4.38-19.12-2.09l-2.19.57c-4.47.85-8.94,2.09-13.32,2.09Zm0,13.13a19.91,19.91,0,0,1-7.32-1.33,26.9,26.9,0,0,1-5-2.67c-2.19-1.33-4.19-2.56-6.38-2.94-3.52-.58-7,1.14-10.75,2.94-3.42,1.72-7,3.43-10.94,3.53-3.52.09-6.75-1.15-9.8-2.29-.76-.28-1.52-.57-2.37-.85a41.87,41.87,0,0,0-27.69,0,1.87,1.87,0,0,1-1.24-3.52,46.19,46.19,0,0,1,30.16.09c.86.29,1.62.57,2.48,1a23.06,23.06,0,0,0,8.37,2.09c3.14-.09,6.18-1.52,9.32-3.13,4.09-2,8.28-4.1,13-3.33,3,.47,5.42,2,7.8,3.42a28.88,28.88,0,0,0,4.37,2.38c5.62,2.19,12,.47,18.18-1.14.76-.19,1.52-.38,2.18-.57,10.37-2.67,17.79-1.72,22.74,3a1.89,1.89,0,1,1-2.57,2.76c-3.9-3.71-10.18-4.38-19.12-2.09l-2.19.57c-4.47.85-8.94,2.09-13.32,2.09Zm-.38-76.21H86.45a.9.9,0,0,1-1-1V72.84a.9.9,0,0,1,1-1h35.49a.9.9,0,0,1,1,1V83.3A1,1,0,0,1,121.94,84.25Zm-34.53-1.9H121V73.79H87.41Zm34.91,51.85h-.47a1.9,1.9,0,1,1,0-3.8,31.21,31.21,0,0,0,7.89-1.05v-58c0-11.71,8.95-21.13,19.89-21.13h3.8a3.26,3.26,0,0,0,3-3.33,3.19,3.19,0,0,0-3-3.32h-3.8c-11.32,0-21.22,7.8-24.74,19.4a2,2,0,0,1-1.81,1.34H88.55a2.14,2.14,0,0,1-1.62-.86,1.75,1.75,0,0,1-.09-1.81,19.74,19.74,0,0,1,17.6-11.32h3.8A3.26,3.26,0,0,0,111.29,47a3.2,3.2,0,0,0-3.05-3.33h-3.8c-14.27,0-25.88,12.46-25.88,27.88v58a14,14,0,0,0,3.33.38,13.2,13.2,0,0,0,4-.76A1.9,1.9,0,0,1,87,132.78a14.91,14.91,0,0,1-5.14.95,20.64,20.64,0,0,1-5.9-.95A2,2,0,0,1,74.66,131V71.32c0-17.51,13.32-31.69,29.68-31.69h3.81a7.15,7.15,0,0,1,0,14.28h-3.81a15.28,15.28,0,0,0-12.46,6.46h30c4.28-12.46,15.31-20.83,27.87-20.83h3.81a7.14,7.14,0,0,1,0,14.27h-3.81c-8.85,0-16.08,7.8-16.08,17.32v59.55a1.83,1.83,0,0,1-1.42,1.81A32.73,32.73,0,0,1,122.32,134.2Zm-.38-1a.9.9,0,0,1-1-1V115.75H87.41v15.31a1,1,0,0,1-1.91,0V114.79a.9.9,0,0,1,1-1h35.49a.9.9,0,0,1,1,1V132.3A.93.93,0,0,1,121.94,133.16Zm0-28H86.45a.91.91,0,0,1-1-1V93.77a.9.9,0,0,1,1-1h35.49a.9.9,0,0,1,1,1v10.46A1,1,0,0,1,121.94,105.19Zm-34.53-1.91H121V94.72H87.41Z"/></svg>