<svg id="圖層_1" data-name="圖層 1" xmlns="http://www.w3.org/2000/svg" viewBox="0 0 200 200"><defs><style>.cls-1{fill:#898989;}</style></defs><title>room-icons</title><path class="cls-1" d="M146.39,47.14a10.62,10.62,0,0,0-1.46.07l-82.39-.16a5.49,5.49,0,0,0-.91.05,25.86,25.86,0,0,0-18.56,8,26,26,0,0,0-8,19.4,26.3,26.3,0,0,0,8,19.45v-.07A27.25,27.25,0,0,0,52,100h106a17.12,17.12,0,0,0,1.53-1.25,11.14,11.14,0,0,0,3.27-8,10.61,10.61,0,0,0-3.33-7.86h.07A10.27,10.27,0,0,0,156.94,81a28.12,28.12,0,0,0,2.53-2.12h0a18.24,18.24,0,0,0,5.42-13.1v-.06a17.94,17.94,0,0,0-5.44-13.08,17.62,17.62,0,0,0-11.68-5.36h-.06a4.76,4.76,0,0,0-.66-.11Zm-1.5,4.09h2.4a13.59,13.59,0,0,1,9.33,4.23,14.23,14.23,0,0,1,4.29,10.23v.06A14.39,14.39,0,0,1,156.62,76a15.47,15.47,0,0,1-6,3.67.18.18,0,0,0-.16.06,14.08,14.08,0,0,1-2.41.39,4.61,4.61,0,0,0-.71.11H61.63A5.66,5.66,0,0,1,58,78.47h-.05a6,6,0,0,1-1.81-4.35,5.69,5.69,0,0,1,1.81-4.24s0,0,.05,0a6,6,0,0,1,2.93-1.66l86.49-.06a2.21,2.21,0,0,0,1.46-.55,2.23,2.23,0,0,0,.56-1.46,2,2,0,0,0-.56-1.42,2.06,2.06,0,0,0-1.46-.61l-86.69.06a.59.59,0,0,0-.31.06A9.09,9.09,0,0,0,55.17,67c-.05,0-.05,0-.05.05a9.94,9.94,0,0,0,0,14.27v0a9.56,9.56,0,0,0,6.06,2.91H147.6c.25,0,.55,0,.86-.11a18,18,0,0,0,3-.54h.06a6.89,6.89,0,0,1,5.09,2.16,6.64,6.64,0,0,1,2.11,5,7.12,7.12,0,0,1-6.4,7.17h-.46l-14.5.09H61.63A22.5,22.5,0,0,1,46,91.1,22.37,22.37,0,0,1,39.1,74.54,22.31,22.31,0,0,1,46,58a22.35,22.35,0,0,1,15.78-6.83h.2a2.07,2.07,0,0,1,.61-.06l82.35.14ZM52,100a26.73,26.73,0,0,0-8.89,6,27.52,27.52,0,0,0,0,38.82v0A26.44,26.44,0,0,0,61.82,153l90.06-.06h.86a11.18,11.18,0,0,0,10-11.18,10.61,10.61,0,0,0-3.33-7.91h.07a12.1,12.1,0,0,0-2.47-1.93,25.77,25.77,0,0,0,2.47-2.07h0a18.14,18.14,0,0,0,5.44-13.1v0a18.15,18.15,0,0,0-5.44-13.14h0a21.18,21.18,0,0,0-3.08-2.52,8,8,0,0,0,1.55-1H52Zm10.27,2h75.09l7.57.11h2.41a14,14,0,0,1,9.33,4.17v.06a14.36,14.36,0,0,1,4.29,10.28v0a14.32,14.32,0,0,1-4.29,10.23,14.11,14.11,0,0,1-5.9,3.59s0,0-.09.05h-.06a.18.18,0,0,0-.16.06A14.08,14.08,0,0,1,148,131a2.61,2.61,0,0,1-.66.06H61.58a6,6,0,0,1-3.64-10.28H58a5.69,5.69,0,0,1,3-1.71h86.43a1.87,1.87,0,0,0,2-2,2,2,0,0,0-2-2H60.72a.86.86,0,0,0-.35,0,9.89,9.89,0,0,0-5.25,2.82l.05,0A9.48,9.48,0,0,0,52.1,125a9.87,9.87,0,0,0,3,7.27,9.75,9.75,0,0,0,6.1,2.84h86.13a10.86,10.86,0,0,0,1.11,0,20.39,20.39,0,0,0,3-.58h.06a6.9,6.9,0,0,1,5.09,2.17,6.75,6.75,0,0,1,2.11,5,7,7,0,0,1-2.11,5.09,7.16,7.16,0,0,1-4.29,2l-90.35.06a22.49,22.49,0,0,1-16-6.92h0A23.47,23.47,0,0,1,46,108.9a22.35,22.35,0,0,1,15.73-6.85Z"/></svg>