<svg id="圖層_1" data-name="圖層 1" xmlns="http://www.w3.org/2000/svg" viewBox="0 0 200 200"><defs><style>.cls-1{fill:#707070;}</style></defs><title>room-icons</title><path class="cls-1" d="M138,116.84a1.93,1.93,0,0,0-1.59-1.39,1,1,0,0,0-.55-.06H64.52a1.86,1.86,0,0,0-1.4.6,1.79,1.79,0,0,0-.55,1.06v0a.67.67,0,0,0,0,.31,4.33,4.33,0,0,0,.09.7,38.82,38.82,0,0,0,1.7,5.84l0,0v.14c0,.06,0,.17.1.21a37,37,0,0,0,19.63,21.34l0,0c.84.36,1.65.7,2.44,1.07a36.67,36.67,0,0,0,26.72.1A37,37,0,0,0,135,127.13H135q.61-1.38,1.14-2.79c.16-.45.3-1,.51-1.41a.17.17,0,0,0,0-.14,31.71,31.71,0,0,0,1.25-4.9.19.19,0,0,1,.05-.15A2.28,2.28,0,0,0,138,116.84Zm-5,4.59-.29.74a4.63,4.63,0,0,0-.25.8v0h0c-.34.84-.69,1.67-1.05,2.5A33.23,33.23,0,0,1,112,143.11h0A32.7,32.7,0,0,1,88,143c-.76-.28-1.51-.58-2.25-.91-1.32-.65-2.6-1.35-3.85-2.11a33,33,0,0,1-13.68-16.79v-.08a1.77,1.77,0,0,0-.15-.42v-.1c-.39-1-.74-2.11-1-3.19H133.6C133.4,120.07,133.2,120.75,133,121.43Z"/><path class="cls-1" d="M85.94,49.21a1.74,1.74,0,0,0-1.5-.25,8.41,8.41,0,0,0-1.29.41,56.86,56.86,0,0,0-25,15Q41.62,80.91,40.93,103.91a16.28,16.28,0,0,0-7.75,4.59,17.18,17.18,0,0,0-5.29,12.73A17.4,17.4,0,0,0,33.18,134v0a17,17,0,0,0,12.69,5.28,19.66,19.66,0,0,0,4.64-.56A60.09,60.09,0,0,0,58.15,148,57.11,57.11,0,0,0,100,165.24a56.94,56.94,0,0,0,41.81-17.34V148a64.61,64.61,0,0,0,7.45-9,19.56,19.56,0,0,0,4.84.61,17.94,17.94,0,0,0,18-18,16.91,16.91,0,0,0-5.31-12.68h.06a17.29,17.29,0,0,0-7.73-4.65Q158.44,81,141.79,64.36a57,57,0,0,0-6.1-5.41,55.13,55.13,0,0,0-11.94-7.08,1.72,1.72,0,0,0-1.5-.06,1.8,1.8,0,0,0-1.11,1,1.94,1.94,0,0,0,0,1.55,2.1,2.1,0,0,0,1.06,1.1,52.69,52.69,0,0,1,11.08,6.59,58.71,58.71,0,0,1,5.69,5v0a53.2,53.2,0,0,1,16.18,38.47,2.16,2.16,0,0,0,.36,1.3,2.63,2.63,0,0,0,.5.5l.3.13a.4.4,0,0,1,.2,0l.05.06h.06l0,0h.11l0,.06a13.53,13.53,0,0,1,7.24,3.89,13.33,13.33,0,0,1,4.11,9.85,14,14,0,0,1-14,14,14.07,14.07,0,0,1-4.91-.84,1.82,1.82,0,0,0-1.13-.11c-.06,0-.06,0-.11.07a.36.36,0,0,0-.2,0s0,0-.11,0-.14.06-.2.1l0,.07c-.05,0-.05,0-.1,0l-.11.06a1.73,1.73,0,0,0-.55.68,57.74,57.74,0,0,1-7.69,9.39A53.07,53.07,0,0,1,100,161.25a53.32,53.32,0,0,1-39-16.14H61a56.53,56.53,0,0,1-7.94-9.78,2.05,2.05,0,0,0-1.16-.84l-.09-.05a.81.81,0,0,0-.4-.07,1.88,1.88,0,0,0-.7.16l-.09.06a15.93,15.93,0,0,1-4.75.7A13.22,13.22,0,0,1,36,131.17a13.92,13.92,0,0,1,0-19.83v0a13,13,0,0,1,7-3.79h.21a2.72,2.72,0,0,0,1-.54,2.6,2.6,0,0,0,.55-.95,1.3,1.3,0,0,0,.06-.46v-.1A53.09,53.09,0,0,1,61,67.14v0a53.11,53.11,0,0,1,23.22-14,.21.21,0,0,1,.15-.05,2.64,2.64,0,0,1,1-.3,2.08,2.08,0,0,0,1.25-.9,1.74,1.74,0,0,0,.25-1.5,2.08,2.08,0,0,0-.9-1.25Z"/><path class="cls-1" d="M126.1,91.68a5.18,5.18,0,0,0-4.1-.57,5,5,0,0,0-3.3,2.5,5.13,5.13,0,0,0-.55,4.1,5.67,5.67,0,0,0,1.15,2.2,5.29,5.29,0,0,0,5.49,1.59,5,5,0,0,0,2.7-1.59,7.84,7.84,0,0,0,.6-.84,5.73,5.73,0,0,0,.56-4.21,5.23,5.23,0,0,0-2.55-3.18Z"/><path class="cls-1" d="M81.85,99.11a5.62,5.62,0,0,0,.55-4.19,4.94,4.94,0,0,0-2.5-3.24,5.3,5.3,0,0,0-7.28,1.77l-.12.21A5.2,5.2,0,0,0,72,97.77a5.72,5.72,0,0,0,2.54,3.34,5.13,5.13,0,0,0,4.1.49A5.46,5.46,0,0,0,81.24,100,8.46,8.46,0,0,0,81.85,99.11Z"/><path class="cls-1" d="M109.91,38.82l0,0a16.91,16.91,0,0,0-3.29-2.36A14.39,14.39,0,0,0,97.27,35h0a12.34,12.34,0,0,0-4.49,1.75,15.67,15.67,0,0,0-3.6,3l-.06,0A14,14,0,0,0,86.5,44v.05a11.78,11.78,0,0,0-1,5v.1A16,16,0,0,0,85.9,53a21.24,21.24,0,0,0,1.6,4.79,18.44,18.44,0,0,0,2,3.3,18.07,18.07,0,0,0,2.74,3l0,0a15.33,15.33,0,0,0,2.24,1.8,16.18,16.18,0,0,0,2.24,1.34c.05,0,.05,0,.11.06A19.81,19.81,0,0,0,105.41,69h.1a18.7,18.7,0,0,0,4.75-.82s0,0,.06,0a18.47,18.47,0,0,0,3.09-1h.06c1-.5,2-1.06,3-1.66v.06c1-.66,2-1.25,3-1.91a2,2,0,0,0,.84-1.25,1.74,1.74,0,0,0-.25-1.5A2.12,2.12,0,0,0,118.9,60a1.72,1.72,0,0,0-1.49.25c-1,.65-2,1.24-2.94,1.85h-.06c-.83.48-1.68.94-2.54,1.35-.05,0-.05,0-.05.05-.86.33-1.73.62-2.6.9h-.1a17.46,17.46,0,0,1-3.8.64,23.11,23.11,0,0,1-3.1-.24,19.58,19.58,0,0,1-3.65-1.15h.05A13.54,13.54,0,0,1,95,61.1s0,0,0-.05a16.7,16.7,0,0,1-3.9-5,15,15,0,0,1-1.55-6.84v-.1a8.4,8.4,0,0,1,.64-3.5l.06-.05a9.59,9.59,0,0,1,1.85-3,11.24,11.24,0,0,1,2.75-2.35h0a8.45,8.45,0,0,1,3.1-1.2h0a12.72,12.72,0,0,1,3.55-.05h0a10.35,10.35,0,0,1,3.15,1.05l0,.06a10.34,10.34,0,0,1,2.4,1.7h0a9.26,9.26,0,0,1,1.63,2.24,6.85,6.85,0,0,1,.7,3v0a6.15,6.15,0,0,1-.8,3.25,8.35,8.35,0,0,1-2.35,2.6,7.41,7.41,0,0,1-3.2,1.25c0-.06,0-.06-.1,0a6.05,6.05,0,0,1-1.9,0h0a2.38,2.38,0,0,1-1.9-1.5A1.93,1.93,0,0,0,98,51.51a1.86,1.86,0,0,0-1.5,0,1.93,1.93,0,0,0-1.09,1.1,2.05,2.05,0,0,0,0,1.54,6.24,6.24,0,0,0,4.89,3.9,9.71,9.71,0,0,0,3.4,0h-.1a11.58,11.58,0,0,0,8.49-5.85A10.18,10.18,0,0,0,113.41,47v0a10.51,10.51,0,0,0-1.15-4.85,12.55,12.55,0,0,0-2.35-3.25Z"/></svg>