<svg id="圖層_1" data-name="圖層 1" xmlns="http://www.w3.org/2000/svg" viewBox="0 0 200 200"><defs><style>.cls-1{fill:#8a8a8a;}</style></defs><title>room-icons</title><path class="cls-1" d="M83.08,81.46a10.24,10.24,0,0,0,3.78.09c4.1-.64,7.52-3.63,9.63-8.39a28.62,28.62,0,0,0,1.7-15.77,28.67,28.67,0,0,0-6.42-14.52c-3.46-3.9-7.62-5.71-11.72-5.06s-7.52,3.62-9.63,8.39A28.6,28.6,0,0,0,68.72,62a28.71,28.71,0,0,0,6.42,14.52A14.78,14.78,0,0,0,83.08,81.46ZM74,47.79c1.55-3.52,3.92-5.68,6.66-6.11a6.63,6.63,0,0,1,2.39.06,10.93,10.93,0,0,1,5.81,3.74A24.69,24.69,0,0,1,94.33,58a24.8,24.8,0,0,1-1.41,13.6c-1.56,3.52-3.93,5.68-6.66,6.11s-5.65-.92-8.2-3.8a24.69,24.69,0,0,1-5.47-12.52A24.7,24.7,0,0,1,74,47.79Z"/><path class="cls-1" d="M110.38,80.51a10.43,10.43,0,0,0,3.6,1.13c4.12.52,8.23-1.4,11.58-5.4a28.67,28.67,0,0,0,6-14.69,28.67,28.67,0,0,0-2.15-15.72c-2.24-4.7-5.74-7.59-9.86-8.11s-8.23,1.4-11.57,5.4a28.51,28.51,0,0,0-6,14.68,28.61,28.61,0,0,0,2.14,15.73A14.84,14.84,0,0,0,110.38,80.51Zm.6-34.87c2.46-3,5.34-4.38,8.09-4a6.67,6.67,0,0,1,2.28.72,10.89,10.89,0,0,1,4.54,5.2,24.76,24.76,0,0,1,1.79,13.55,24.72,24.72,0,0,1-5.12,12.67c-2.47,3-5.35,4.38-8.09,4s-5.18-2.44-6.83-5.92a24.73,24.73,0,0,1-1.79-13.54A24.64,24.64,0,0,1,111,45.64Z"/><path class="cls-1" d="M154,78.83c-.18-4.36-1.94-7.74-5-9.51s-6.82-1.65-10.71.33a25.28,25.28,0,0,0-12.77,21.83c.18,4.35,2,7.73,5,9.5a8.37,8.37,0,0,0,1.52.7c2.72,1,5.92.61,9.19-1A25.21,25.21,0,0,0,154,78.83Zm-6.83,10.65c-3.69,6.3-9.8,10-13.85,8.53a5.28,5.28,0,0,1-.83-.4c-1.84-1.08-2.93-3.31-3-6.3a21.41,21.41,0,0,1,10.64-18.18,7.89,7.89,0,0,1,6.13-.83,3.81,3.81,0,0,1,.84.4c1.84,1.08,2.92,3.31,3,6.3A19.8,19.8,0,0,1,147.13,89.48Z"/><path class="cls-1" d="M61.49,102c4,1.41,7.67,1.06,10.39-1s4.18-5.65,3.87-10A23.7,23.7,0,0,0,70.9,78.9a23.74,23.74,0,0,0-10.29-8.1c-4.08-1.53-7.88-1.23-10.68.86s-4.18,5.65-3.86,10A25.27,25.27,0,0,0,61.2,101.93ZM54.05,91.49A19.88,19.88,0,0,1,50,81.39c-.22-3,.61-5.32,2.31-6.59s4.16-1.34,6.73-.43a19.79,19.79,0,0,1,8.77,6.88c4.67,6.26,5.49,13.91,1.77,16.68S58.73,97.76,54.05,91.49Z"/><path class="cls-1" d="M135.14,128.39l-.15-.26-.64-1c-2.66-4-10.74-16-17.62-22.54-6.17-5.89-15.72-5.78-16.12-5.77l-2.67.05c-.4,0-9.53.19-15.89,6.21-8.18,7.75-17.22,23.49-17.75,24.41-5.1,8.5-7.51,13-7.43,18,.07,4.8,1.88,8.72,5.21,11.33a15.51,15.51,0,0,0,4.31,2.33,23,23,0,0,0,7.79,1.18h.12c3.85-.06,6.63-.1,13.18-3.71l.22-.11.18-.2c.2-.18,3.88-3.3,12.16-3.09h.15c8.2-.46,12,2.51,12.16,2.68l.16.16.25.12c6.74,3.44,9.59,3.4,13.52,3.34,10.53-.16,17-6,16.85-15.35-.07-5-2.61-9.45-8-17.78Zm-8.91,29.22c-3.7.07-5.77.09-11.49-2.82-1.09-.83-5.72-4-14.68-3.48-9-.2-13.58,3.1-14.64,4-5.57,3-7.57,3.06-11.19,3.12h-.12c-4,.06-7.33-.86-9.64-2.68s-3.66-4.68-3.71-8.31c-.06-3.95,2.15-8.08,6.88-15.94l0,0c.09-.16,9.21-16.1,17-23.53C90,103,97.9,102.79,98,102.79l2.81-.05c1,0,8.57.26,13.25,4.69,7.7,7.34,17.42,22.4,17.83,23v0c5,7.7,7.3,11.76,7.36,15.73C139.39,156.31,130.2,157.55,126.23,157.61Z"/></svg>