<svg id="圖層_1" data-name="圖層 1" xmlns="http://www.w3.org/2000/svg" viewBox="0 0 200 200"><defs><style>.cls-1{fill:#898989;}</style></defs><title>room-icons</title><path class="cls-1" d="M174.16,47.42H25.84A1.83,1.83,0,0,0,24,49.24v89.45a1.83,1.83,0,0,0,1.82,1.82H98.18v8.43H59.66a1.82,1.82,0,0,0,0,3.64h80.68a1.82,1.82,0,0,0,0-3.64H101.82v-8.43h72.34a1.83,1.83,0,0,0,1.82-1.82V49.24A1.83,1.83,0,0,0,174.16,47.42Zm-1.82,89.45H27.66V51.06H172.34v85.81Z"/><path class="cls-1" d="M124.61,89.36a1.81,1.81,0,0,0-2.56.27l-13,16.15L101.63,90s0,0,0,0a.19.19,0,0,0,0-.09.15.15,0,0,1,0-.08s0-.05,0-.07l-.06-.07,0-.06-.07-.07-.06,0-.07-.08s0,0-.06,0,0,0-.07-.06,0,0-.07,0-.06,0-.07-.06a.13.13,0,0,0-.08,0s0,0-.07,0l-.09,0h-.07l-.09,0-.09,0-.1,0-.09,0H76.52a1.82,1.82,0,0,0,0,3.64h9.59l-2.77,16.29A1.81,1.81,0,0,0,84.83,111a1.62,1.62,0,0,0,.31,0,1.81,1.81,0,0,0,1.78-1.51l2.86-16.89h9L107,110a1.81,1.81,0,0,0,1.43,1l.22,0a1.85,1.85,0,0,0,1.42-.68L124.9,92A1.88,1.88,0,0,0,124.61,89.36Z"/><path class="cls-1" d="M71.33,62.24,39,84.15a1.82,1.82,0,0,0-.5,2.52h0a1.77,1.77,0,0,0,1.51.8,1.87,1.87,0,0,0,1-.31l32.37-21.9a1.82,1.82,0,0,0-2-3Z"/><path class="cls-1" d="M48.33,71.51a1.9,1.9,0,0,0,1-.31l8.78-5.94a1.82,1.82,0,0,0-2-3h0l-8.78,5.94a1.82,1.82,0,0,0-.49,2.52h0A1.82,1.82,0,0,0,48.33,71.51Z"/></svg>