<svg id="圖層_1" data-name="圖層 1" xmlns="http://www.w3.org/2000/svg" viewBox="0 0 200 200"><defs><style>.cls-1{fill:#8a8a8a;}</style></defs><title>room-icons</title><path class="cls-1" d="M119.42,134.77a2.13,2.13,0,0,1-1.51-.65L65.85,82.06a2.08,2.08,0,0,1,0-3l13.2-13.2a2.08,2.08,0,0,1,3,0l52.06,52.06a2.07,2.07,0,0,1,0,3l-13.2,13.2A2.13,2.13,0,0,1,119.42,134.77ZM70.47,80.56l49,48.95,10.09-10.09L80.56,70.47Zm45.83,87.59a6.58,6.58,0,0,1-4.83-2L102,156.67a6.75,6.75,0,0,1,0-9.67l45-45a6.75,6.75,0,0,1,9.67,0l9.44,9.44a6.74,6.74,0,0,1,0,9.66l-45,45A6.38,6.38,0,0,1,116.3,168.15Zm-1.82-5a2.67,2.67,0,0,0,3.65,0l45-45a2.6,2.6,0,0,0,0-3.65L153.66,105a2.67,2.67,0,0,0-3.65,0l-45,45a2.6,2.6,0,0,0,0,3.65ZM48.14,100a6.81,6.81,0,0,1-4.83-2L33.86,88.5a6.81,6.81,0,0,1,0-9.66l44.87-45a6.81,6.81,0,0,1,9.66,0l9.45,9.45a6.74,6.74,0,0,1,0,9.66L53,98A6.83,6.83,0,0,1,48.14,100ZM83.67,36.12a2.48,2.48,0,0,0-1.82.75l-45,45a2.64,2.64,0,0,0,0,3.64l9.44,9.45a2.65,2.65,0,0,0,3.65,0l45-45a2.6,2.6,0,0,0,0-3.65l-9.45-9.44A2.48,2.48,0,0,0,83.67,36.12ZM45.88,72a2.16,2.16,0,0,1-1.5-.64l-6-6a6.74,6.74,0,0,1,0-9.66L55.55,38.37a6.74,6.74,0,0,1,9.66,0l6,6a2.08,2.08,0,0,1,0,3L47.39,71.33A2.72,2.72,0,0,1,45.88,72Zm14.5-31.35a2.52,2.52,0,0,0-1.83.76L41.38,58.66a2.57,2.57,0,0,0,0,3.65l4.5,4.51L66.71,45.88l-4.51-4.5A2.59,2.59,0,0,0,60.38,40.62Zm79.11,123a6.56,6.56,0,0,1-4.83-2l-6-6a2.06,2.06,0,0,1,0-3l23.94-23.94a2.07,2.07,0,0,1,3,0l6,6a6.79,6.79,0,0,1,0,9.66L144.32,161.6a6.41,6.41,0,0,1-4.83,2Zm-1.72-5a2.67,2.67,0,0,0,3.65,0l17.28-17.29a2.64,2.64,0,0,0,0-3.64l-4.5-4.51-20.94,20.93,4.51,4.51Z"/></svg>