<svg id="圖層_1" data-name="圖層 1" xmlns="http://www.w3.org/2000/svg" viewBox="0 0 200 200"><defs><style>.cls-1{fill:#8a8a8a;}</style></defs><title>room-icons</title><path class="cls-1" d="M171.49,150.1h-143a2.33,2.33,0,0,1-2.33-2.32V84.42a2.33,2.33,0,0,1,2.33-2.32h143a2.33,2.33,0,0,1,2.33,2.32V147.9A2.31,2.31,0,0,1,171.49,150.1ZM30.83,145.45H169.17V86.75H30.83Zm140.66-39.4h-143a1.17,1.17,0,1,1,0-2.33h143a1.17,1.17,0,1,1,0,2.33Zm-110.2,56H42.57a2.33,2.33,0,0,1-2.32-2.33v-12a2.33,2.33,0,0,1,2.32-2.33H61.29a2.33,2.33,0,0,1,2.32,2.33v12A2.33,2.33,0,0,1,61.29,162.08ZM44.9,157.43H59V150.1H44.9Zm112.53,4.65H138.71a2.33,2.33,0,0,1-2.32-2.33v-12a2.33,2.33,0,0,1,2.32-2.33h18.72a2.33,2.33,0,0,1,2.32,2.33v12A2.33,2.33,0,0,1,157.43,162.08ZM141,157.43H155.1V150.1H141ZM77.1,86.75H47.45a2.34,2.34,0,0,1-2.32-2.33V70.59a2.34,2.34,0,0,1,2.32-2.33H77.1a2.33,2.33,0,0,1,2.32,2.33V84.42A2.33,2.33,0,0,1,77.1,86.75ZM49.78,82.1h25V72.91h-25ZM62.22,42.57a8.95,8.95,0,1,1-8.95,9,9,9,0,0,1,8.95-9m0-4.65a13.6,13.6,0,1,0,13.6,13.6A13.61,13.61,0,0,0,62.22,37.92Zm90.33,48.83H122.9a2.33,2.33,0,0,1-2.32-2.33V70.59a2.33,2.33,0,0,1,2.32-2.33h29.65a2.34,2.34,0,0,1,2.32,2.33V84.42A2.34,2.34,0,0,1,152.55,86.75ZM125.23,82.1h25V72.91h-25Zm12.55-39.53a8.95,8.95,0,1,1-8.95,9,9,9,0,0,1,8.95-9m0-4.65a13.66,13.66,0,1,0,13.6,13.72A13.8,13.8,0,0,0,137.78,37.92Z"/></svg>