<svg id="圖層_1" data-name="圖層 1" xmlns="http://www.w3.org/2000/svg" viewBox="0 0 200 200"><defs><style>.cls-1{fill:#8a8a8a;}</style></defs><title>room-icons</title><path class="cls-1" d="M135.33,121H54.8a2.08,2.08,0,0,1-2.07-2.08v-3.12a42.34,42.34,0,1,1,84.67-.1v3.12A2.11,2.11,0,0,1,135.33,121Zm-78.45-4.16h76.37v-1a38.19,38.19,0,0,0-76.37-.1Zm69.72-5.19a1,1,0,0,1-1-.83A30.83,30.83,0,0,0,95,84.93a1,1,0,1,1,0-2.07,32.75,32.75,0,0,1,32.63,27.53,1,1,0,0,1-.83,1.14A.33.33,0,0,1,126.6,111.64Zm8.1,23.69H55.43A9.38,9.38,0,0,1,46.08,126a9.19,9.19,0,0,1,8.52-9.24h80.93a9.19,9.19,0,0,1,8.52,9.24,9.45,9.45,0,0,1-9.35,9.36ZM54.91,121a5.15,5.15,0,0,0-4.57,5.09,5.2,5.2,0,0,0,5.19,5.19h79.28a5.2,5.2,0,0,0,5.19-5.19,5.08,5.08,0,0,0-4.57-5.09ZM95,77.56a2.09,2.09,0,0,1-2.08-2.08V45.24A11.18,11.18,0,0,1,104.16,34h47.69a2.08,2.08,0,0,1,0,4.16H104.16a7.07,7.07,0,0,0-7.07,7.06V75.48A2.08,2.08,0,0,1,95,77.56Zm0,70.23a2.08,2.08,0,0,1-2.08-2.07V135.43a2.08,2.08,0,1,1,4.16,0v10.29A2.08,2.08,0,0,1,95,147.79ZM95,166a2.09,2.09,0,0,1-2.08-2.08V153.61a2.08,2.08,0,1,1,4.16,0V163.9A2.08,2.08,0,0,1,95,166Zm23.69-18.19a2.08,2.08,0,0,1-2.08-2.07V135.43a2.08,2.08,0,1,1,4.16,0v10.29A2,2,0,0,1,118.7,147.79Zm0,18.19a2.09,2.09,0,0,1-2.08-2.08V153.61a2.08,2.08,0,1,1,4.16,0V163.9A2,2,0,0,1,118.7,166ZM83.17,147.79a2.08,2.08,0,0,1-2.08-2.07V135.43a2.08,2.08,0,1,1,4.16,0v10.29A2.08,2.08,0,0,1,83.17,147.79Zm0,18.19a2.09,2.09,0,0,1-2.08-2.08V153.61a2.08,2.08,0,1,1,4.16,0V163.9A2.09,2.09,0,0,1,83.17,166ZM71.32,147.79a2.07,2.07,0,0,1-2.07-2.07V135.43a2.08,2.08,0,1,1,4.15,0v10.29A2.08,2.08,0,0,1,71.32,147.79Zm0,18.19a2.08,2.08,0,0,1-2.07-2.08V153.61a2.08,2.08,0,1,1,4.15,0V163.9A2.08,2.08,0,0,1,71.32,166ZM59.48,147.79a2.08,2.08,0,0,1-2.08-2.07V135.43a2.08,2.08,0,0,1,4.16,0v10.29A2.08,2.08,0,0,1,59.48,147.79Zm0,18.19a2.09,2.09,0,0,1-2.08-2.08V153.61a2.08,2.08,0,0,1,4.16,0V163.9A2.09,2.09,0,0,1,59.48,166Zm47.38-18.19a2.08,2.08,0,0,1-2.08-2.07V135.43a2.08,2.08,0,1,1,4.16,0v10.29A2.08,2.08,0,0,1,106.86,147.79Zm0,18.19a2.08,2.08,0,0,1-2.08-2.08V153.61a2.08,2.08,0,1,1,4.16,0V163.9A2.09,2.09,0,0,1,106.86,166Zm23.79-18.19a2.08,2.08,0,0,1-2.08-2.07V135.43a2.08,2.08,0,1,1,4.16,0v10.29A2.08,2.08,0,0,1,130.65,147.79Zm0,18.19a2.09,2.09,0,0,1-2.08-2.08V153.61a2.08,2.08,0,1,1,4.16,0V163.9A2.09,2.09,0,0,1,130.65,166Z"/></svg>