<svg id="圖層_1" data-name="圖層 1" xmlns="http://www.w3.org/2000/svg" viewBox="0 0 200 200"><defs><style>.cls-1{fill:#898989;}</style></defs><title>room-icons</title><path class="cls-1" d="M134.7,100.78C133,66,116.56,50.59,110.79,46.22a7,7,0,0,0,1-3.75V35.94c0-4-3.07-6.18-7-6.18H95.31c-4,0-7.59,2.22-7.59,6.18v6.53a7.24,7.24,0,0,0,1.22,3.61c-5.55,4.17-22,19.47-23.72,54.7-1.35,27.44-.82,48.52-.42,58.65a11.29,11.29,0,0,0,11.31,10.81h48a11.23,11.23,0,0,0,11.26-10.9c.35-10.13.72-31.2-.62-58.56Zm-43-64.84c0-1.75,1.82-2.16,3.57-2.16h9.46c1.74,0,3,.41,3,2.16v1.85H91.74Zm0,5.86h16.05v.67a3.21,3.21,0,0,1-3,3.35H95.31a3.69,3.69,0,0,1-3.57-3.35Zm.4,7.17a7.14,7.14,0,0,0,3.17.86h9.46a7.19,7.19,0,0,0,3-.78c3.78,2.73,17.84,14.53,21.92,41.93a.86.86,0,0,1-.74,1H71.15a.86.86,0,0,1-.85-.88V91C74.39,63.38,88.57,51.56,92.14,49ZM69.33,101c.07-1.45.18-2.85.3-4.22a.84.84,0,0,1,.86-.77h59a.86.86,0,0,1,.86.77c.12,1.38.23,2.8.3,4.26.46,9.38.71,18,.84,25.69a1.36,1.36,0,0,1-1.35,1.38H69.9a1.36,1.36,0,0,1-1.38-1.35v0C68.63,119,68.87,110.37,69.33,101Zm62,58.22a7.23,7.23,0,0,1-7.25,7H76.11a7.22,7.22,0,0,1-7.24-6.95c-.22-5.54-.47-14.39-.42-25.77a1.39,1.39,0,0,1,1.39-1.39h60.39a1.38,1.38,0,0,1,1.38,1.38q.12,12.85-.3,25.71Z"/></svg>