<svg id="圖層_1" data-name="圖層 1" xmlns="http://www.w3.org/2000/svg" viewBox="0 0 200 200"><defs><style>.cls-1{fill:#8a8a8a;}</style></defs><title>room-icons</title><path class="cls-1" d="M165.92,162.12H152.7V88.25a5.75,5.75,0,0,0-3-5.08L116.87,65.62V38.7a5.76,5.76,0,0,0-5.76-5.76H53.25a5.77,5.77,0,0,0-5.76,5.76V162.12H34.08a2.47,2.47,0,0,0,0,4.94H165.92a2.47,2.47,0,0,0,0-4.94ZM52.43,38.7a.81.81,0,0,1,.82-.82h57.86a.82.82,0,0,1,.83.82V161.78H52.43Zm64.44,32.51,30.47,16.3a.85.85,0,0,1,.43.73v73.87h-30.9Z"/><path class="cls-1" d="M62,67.9a1.65,1.65,0,0,0,1.64,1.65h9.87a1.65,1.65,0,0,0,1.65-1.65V58a1.65,1.65,0,0,0-1.65-1.64H63.64A1.65,1.65,0,0,0,62,58Zm26.48,0a1.65,1.65,0,0,0,1.65,1.65H100a1.66,1.66,0,0,0,1.65-1.65V58A1.66,1.66,0,0,0,100,56.39H90.13A1.65,1.65,0,0,0,88.48,58Zm36.36,42.93a1.65,1.65,0,0,0,1.65,1.64h9.87a1.65,1.65,0,0,0,1.64-1.64V101a1.65,1.65,0,0,0-1.64-1.64h-9.87a1.65,1.65,0,0,0-1.65,1.64Zm0,31.14a1.65,1.65,0,0,0,1.65,1.64h9.87A1.65,1.65,0,0,0,138,142V132.1a1.65,1.65,0,0,0-1.64-1.65h-9.87a1.65,1.65,0,0,0-1.65,1.65ZM62,101a1.65,1.65,0,0,0,1.64,1.65h9.87A1.65,1.65,0,0,0,75.16,101V91.1a1.65,1.65,0,0,0-1.65-1.65H63.64A1.65,1.65,0,0,0,62,91.1Zm26.48,0a1.65,1.65,0,0,0,1.65,1.65H100a1.66,1.66,0,0,0,1.65-1.65V91.1A1.66,1.66,0,0,0,100,89.45H90.13a1.65,1.65,0,0,0-1.65,1.65ZM62,134.14a1.65,1.65,0,0,0,1.64,1.64h9.87a1.65,1.65,0,0,0,1.65-1.64v-9.87a1.65,1.65,0,0,0-1.65-1.65H63.64A1.65,1.65,0,0,0,62,124.27Zm26.48,0a1.65,1.65,0,0,0,1.65,1.64H100a1.66,1.66,0,0,0,1.65-1.64v-9.87a1.66,1.66,0,0,0-1.65-1.65H90.13a1.65,1.65,0,0,0-1.65,1.65Z"/></svg>