<svg id="圖層_1" data-name="圖層 1" xmlns="http://www.w3.org/2000/svg" viewBox="0 0 200 200"><defs><style>.cls-1{fill:#8a8a8a;}</style></defs><title>room-icons</title><path class="cls-1" d="M72.14,67.67H56.28a4.08,4.08,0,0,0-4.07,4.06V81a4.08,4.08,0,0,0,4.07,4.06H72.14A4.08,4.08,0,0,0,76.21,81V71.73A4.08,4.08,0,0,0,72.14,67.67Zm0,13.32H56.28V71.73H72.14Z"/><path class="cls-1" d="M72.14,115.05H56.28a4.08,4.08,0,0,0-4.07,4.06v9.26a4.08,4.08,0,0,0,4.07,4.06H72.14a4.08,4.08,0,0,0,4.07-4.06v-9.26A4.08,4.08,0,0,0,72.14,115.05Zm0,13.32H56.28v-9.26H72.14Z"/><path class="cls-1" d="M51.71,33.4H38.49a4.08,4.08,0,0,0-4.07,4.07V162.53a4.08,4.08,0,0,0,4.07,4.07H51.71a4.08,4.08,0,0,0,4.06-4.07V37.47A4.08,4.08,0,0,0,51.71,33.4Zm0,129.13H38.49V37.47H51.71Z"/><path class="cls-1" d="M160.6,50.69H77.12a5,5,0,0,0-5,5v88.76a5,5,0,0,0,5,5H160.6a5,5,0,0,0,5-4.88V55.67A5,5,0,0,0,160.6,50.69Zm.91,93.84a.91.91,0,0,1-.91.92H77.12a.92.92,0,0,1-.91-.92V55.67a.91.91,0,0,1,.91-.91H160.6a.9.9,0,0,1,.91.91Z"/><path class="cls-1" d="M135.69,76.51q-6.1-5.17-19.22-5.18H96.85a1,1,0,0,0-1,1v55.42a1,1,0,0,0,1,1h12.4a1,1,0,0,0,1-1V113.32h6.3c8.44,0,14.75-1.73,18.91-5s6.41-8.75,6.41-15.86S139.75,80,135.69,76.51Zm-1.53,30.2c-3.76,3.05-9.66,4.58-17.59,4.58h-7.32a1,1,0,0,0-1,1v14.44H97.86V73.36h18.51c8.23,0,14.23,1.53,17.89,4.68s5.49,7.93,5.49,14.44S137.92,103.76,134.16,106.71Z"/><path class="cls-1" d="M125.83,84.24c-2.14-1.52-5.29-2.24-9.56-2.24h-7a1,1,0,0,0-1,1v18.61a1,1,0,0,0,1,1h8.34c4.47,0,7.42-.91,9.15-2.84s2.44-4.48,2.44-7.93S128.06,85.77,125.83,84.24Zm-.61,14.23c-1.23,1.43-3.87,2.14-7.63,2.14h-7.32V84h6c3.86,0,6.71.61,8.44,1.83s2.44,3.15,2.44,6S126.54,97.05,125.22,98.47Z"/></svg>