<svg id="圖層_1" data-name="圖層 1" xmlns="http://www.w3.org/2000/svg" viewBox="0 0 200 200"><defs><style>.cls-1{fill:#898989;}</style></defs><title>room-icons</title><path class="cls-1" d="M170.54,115.92H29.46a7.77,7.77,0,0,1-7.76-7.76v-54a7.77,7.77,0,0,1,7.76-7.76H170.54a7.77,7.77,0,0,1,7.76,7.76v54a7.78,7.78,0,0,1-7.76,7.79ZM29.46,49.07a5.11,5.11,0,0,0-5.12,5.11v54a5.12,5.12,0,0,0,5.12,5.11H170.54a5.11,5.11,0,0,0,5.12-5.11V54.18a5.12,5.12,0,0,0-5.12-5.11Z"/><path class="cls-1" d="M170.54,116.42H29.46a8.27,8.27,0,0,1-8.26-8.26v-54a8.27,8.27,0,0,1,8.26-8.26H170.54a8.27,8.27,0,0,1,8.26,8.26v54A8.28,8.28,0,0,1,170.54,116.42ZM29.46,46.92a7.27,7.27,0,0,0-7.26,7.26v54a7.27,7.27,0,0,0,7.26,7.26H170.54a7.28,7.28,0,0,0,7.26-7.29V54.18a7.27,7.27,0,0,0-7.26-7.26Zm141.08,66.82H29.46a5.62,5.62,0,0,1-5.62-5.61V54.18a5.62,5.62,0,0,1,5.62-5.61H170.54a5.61,5.61,0,0,1,5.61,5.61v54A5.61,5.61,0,0,1,170.54,113.74ZM29.46,49.57a4.62,4.62,0,0,0-4.62,4.61v54a4.62,4.62,0,0,0,4.62,4.61H170.54a4.61,4.61,0,0,0,4.61-4.61V54.18a4.61,4.61,0,0,0-4.61-4.61Z"/><path class="cls-1" d="M79.32,63.37c-1.7,0-3.11.87-3.11,2v.24c0,1.08,1.37,2,3.11,2h41.36c1.7,0,3.11-.87,3.11-2v-.27c0-1.09-1.37-2-3.11-2H79.32Z"/><path class="cls-1" d="M44,153.58a15.76,15.76,0,0,1-3.89-.4,1.32,1.32,0,1,1,.69-2.54c4.26,1.14,16.39-.72,18.72-4.95.93-1.72,0-3.84-2.72-6.36-4.35-4-6.28-7.81-5.75-11.52.74-5.22,6.14-7.89,6.38-8a1.33,1.33,0,1,1,1.17,2.38c-.06,0-4.4,2.2-4.93,6-.4,2.75,1.25,5.85,4.9,9.16C63.3,141.66,63,145,61.87,147c-1.9,3.49-7.33,5.14-10.4,5.8a38,38,0,0,1-7.45.82Z"/><path class="cls-1" d="M85.39,152a16.77,16.77,0,0,1-3.92-.39,1.32,1.32,0,0,1,.69-2.55c4.27,1.14,16.4-.71,18.73-5,.92-1.72,0-3.84-2.73-6.35-4.34-3.95-6.28-7.82-5.75-11.53.74-5.21,6.15-7.89,6.38-8a1.33,1.33,0,1,1,1.17,2.38s-4.4,2.2-4.93,6c-.39,2.76,1.25,5.85,4.9,9.17,4.72,4.29,4.37,7.57,3.29,9.58-1.91,3.5-7.34,5.14-10.41,5.8a37.58,37.58,0,0,1-7.42.82Z"/><path class="cls-1" d="M120.06,153.58a15.76,15.76,0,0,1-3.89-.4,1.32,1.32,0,1,1,.69-2.54c4.26,1.14,16.39-.72,18.72-4.95.93-1.72,0-3.84-2.73-6.36-4.34-4-6.27-7.81-5.74-11.52.74-5.22,6.14-7.89,6.38-8a1.33,1.33,0,1,1,1.17,2.38c-.08,0-4.4,2.2-4.93,6-.4,2.75,1.24,5.85,4.9,9.16,4.71,4.29,4.37,7.58,3.28,9.59-1.9,3.49-7.33,5.14-10.41,5.8a37.77,37.77,0,0,1-7.44.82Z"/><path class="cls-1" d="M120.06,154.08a16.57,16.57,0,0,1-4-.41,1.77,1.77,0,0,1-1.09-.84,1.79,1.79,0,0,1-.19-1.39,1.8,1.8,0,0,1,2.23-1.28c4.05,1.08,16-.74,18.15-4.71.81-1.49-.08-3.43-2.62-5.75-4.47-4.06-6.46-8.09-5.91-12,.8-5.61,6.62-8.36,6.68-8.39a1.83,1.83,0,0,1,1.58,3.3c-.06,0-4.15,2-4.64,5.63-.38,2.6,1.22,5.53,4.74,8.72,4.92,4.49,4.56,8,3.38,10.2-2,3.68-7.59,5.37-10.74,6.05A38.89,38.89,0,0,1,120.06,154.08Z"/><path class="cls-1" d="M116.52,151.09a.84.84,0,0,0-.79.6.84.84,0,0,0,.08.64.8.8,0,0,0,.48.37c2.34.61,6.89.45,11.11-.43,3-.64,8.26-2.22,10.08-5.55,1.43-2.67.33-5.77-3.19-9-3.78-3.42-5.48-6.66-5-9.6.57-4.14,5.21-6.4,5.26-6.42a.84.84,0,0,0,.31-1.08.82.82,0,0,0-1.1-.38c-.07,0-5.4,2.64-6.11,7.62-.5,3.53,1.38,7.25,5.59,11.08,2.93,2.67,3.88,5,2.83,7-2.47,4.5-14.78,6.41-19.29,5.2A.76.76,0,0,0,116.52,151.09Z"/><path class="cls-1" d="M44,154.08a16.57,16.57,0,0,1-4-.41,1.77,1.77,0,0,1-1.09-.84,1.79,1.79,0,0,1-.19-1.39A1.8,1.8,0,0,1,41,150.16c4,1.08,16-.74,18.16-4.71.8-1.49-.09-3.43-2.63-5.75-4.47-4.06-6.46-8.09-5.91-12,.8-5.62,6.62-8.36,6.68-8.39a1.83,1.83,0,0,1,1.58,3.3s-4.16,2.11-4.64,5.63c-.38,2.6,1.22,5.53,4.74,8.72,4.92,4.49,4.56,8,3.39,10.2-2,3.68-7.6,5.37-10.75,6.05A38.8,38.8,0,0,1,44,154.08Z"/><path class="cls-1" d="M40.48,151.09a.84.84,0,0,0-.79.6.84.84,0,0,0,.08.64.8.8,0,0,0,.49.37c2.33.61,6.88.45,11.1-.43,3-.64,8.26-2.22,10.08-5.55,1.43-2.67.34-5.77-3.19-9-3.78-3.42-5.48-6.66-5-9.6.55-4,5-6.3,5.19-6.39a.83.83,0,1,0-.72-1.49c-.07,0-5.4,2.63-6.11,7.62-.5,3.53,1.38,7.25,5.59,11.08,2.93,2.67,3.88,5,2.83,7-2.47,4.5-14.78,6.41-19.29,5.2A.76.76,0,0,0,40.48,151.09Z"/><path class="cls-1" d="M85.39,152.46a16.92,16.92,0,0,1-4-.41,1.78,1.78,0,0,1-1.1-.83,1.9,1.9,0,0,1-.19-1.4,1.77,1.77,0,0,1,.84-1.09,1.83,1.83,0,0,1,1.39-.19c4,1.08,16-.73,18.16-4.71.8-1.49-.08-3.42-2.63-5.75-4.47-4.06-6.46-8.08-5.9-12,.8-5.63,6.61-8.36,6.67-8.38a1.79,1.79,0,0,1,1.4-.07,1.76,1.76,0,0,1,1,.92,1.86,1.86,0,0,1,.09,1.39,1.79,1.79,0,0,1-.93,1s-4.16,2.1-4.65,5.63c-.38,2.6,1.22,5.54,4.74,8.72,4.93,4.49,4.56,8,3.39,10.2-2,3.68-7.6,5.37-10.75,6A37.84,37.84,0,0,1,85.39,152.46Z"/><path class="cls-1" d="M81.82,149.48a.88.88,0,0,0-.42.11.76.76,0,0,0-.37.49.82.82,0,0,0,.08.63.76.76,0,0,0,.49.37c2.4.62,6.89.45,11.11-.43,3-.64,8.25-2.21,10.07-5.55,1.44-2.67.34-5.77-3.18-9-3.78-3.43-5.49-6.66-5.06-9.61.57-4.07,5.15-6.37,5.2-6.39a.81.81,0,0,0,.42-.47.84.84,0,0,0,0-.64.81.81,0,0,0-.46-.41.82.82,0,0,0-.65,0c-.07,0-5.39,2.62-6.1,7.61-.51,3.53,1.37,7.26,5.58,11.08,2.93,2.68,3.89,5,2.84,7-2.48,4.49-14.8,6.4-19.3,5.2Z"/><path class="cls-1" d="M158.84,99.79H41.72a1.83,1.83,0,0,1,0-3.65H158.86A1.81,1.81,0,0,1,160.69,98,1.84,1.84,0,0,1,158.84,99.79Z"/><path class="cls-1" d="M41.72,97.14a.81.81,0,0,0-.82.83.8.8,0,0,0,.82.82H158.84a.83.83,0,0,0,.85-.82.82.82,0,0,0-.83-.83Z"/></svg>