<svg id="圖層_1" data-name="圖層 1" xmlns="http://www.w3.org/2000/svg" viewBox="0 0 200 200"><defs><style>.cls-1{fill:#8a8a8a;}</style></defs><title>room-icons</title><path class="cls-1" d="M92,31.49a2.14,2.14,0,0,0-2.13,2.13v32.1A12.22,12.22,0,0,1,77.68,77.94h-1.6V33.62a2.13,2.13,0,1,0-4.25,0V77.94h-1.7A12.22,12.22,0,0,1,57.91,65.72V33.62a2.13,2.13,0,1,0-4.26,0v32.2a16.51,16.51,0,0,0,11.19,15.6,4,4,0,0,0-.13,1v30a.15.15,0,0,0,0,.07,4.26,4.26,0,0,0-3.63,4.19v39.43a12.46,12.46,0,0,0,12.44,12.44h.64a12.45,12.45,0,0,0,12.44-12.44V116.64a4.09,4.09,0,0,0-3.52-4.19s0,0,0-.07v-30a4.64,4.64,0,0,0-.12-1A16.55,16.55,0,0,0,94.15,65.72V33.62A2.13,2.13,0,0,0,92,31.49ZM69,82.41h9.89v30H69Zm13.5,73.66a8.19,8.19,0,0,1-8.18,8.19h-.64a8.19,8.19,0,0,1-8.19-8.19V116.64h17Z"/><path class="cls-1" d="M146.35,65.4c0-17.43-10-31.68-22.33-31.68S101.7,48,101.7,65.4c0,14.08,6.52,26.07,15.52,30.17v20.32h-1.17a2.13,2.13,0,0,0-2.12,2.13v38.69a9.75,9.75,0,0,0,9.77,9.78h.64a9.82,9.82,0,0,0,9.78-9.78V118a2.13,2.13,0,0,0-2.12-2.13h-1.28V95.62C139.78,91.57,146.35,79.53,146.35,65.4Zm-16.48,91.31a5.49,5.49,0,0,1-5.53,5.53h-.64a5.49,5.49,0,0,1-5.52-5.53V120.14h11.69Zm-8.4-40.82V97.61a19.92,19.92,0,0,0,5,0v18.28ZM124,92.82C114,92.82,106,80.49,106,65.4S114,38,124,38,142.09,50.3,142.09,65.4,134,92.82,124,92.82Z"/></svg>