<svg id="圖層_1" data-name="圖層 1" xmlns="http://www.w3.org/2000/svg" viewBox="0 0 200 200"><defs><style>.cls-1{fill:#898989;}</style></defs><title>room-icons</title><path class="cls-1" d="M173.86,77.34a104.58,104.58,0,0,0-147.72,0A2.72,2.72,0,1,0,30,81.19a99.1,99.1,0,0,1,140,0,2.73,2.73,0,0,0,3.84,0h0a2.72,2.72,0,0,0,0-3.84Z"/><path class="cls-1" d="M42.13,93.32A2.72,2.72,0,1,0,46,97.17h0a76.49,76.49,0,0,1,108.05,0,2.72,2.72,0,0,0,3.85-3.85A81.94,81.94,0,0,0,42.13,93.32Z"/><path class="cls-1" d="M100,92a58.86,58.86,0,0,0-41.89,17.32A2.72,2.72,0,1,0,62,113.16a53.84,53.84,0,0,1,76.08,0,2.73,2.73,0,0,0,3.84,0h0a2.73,2.73,0,0,0,0-3.85h0A58.84,58.84,0,0,0,100,92Zm0,25.58a17.82,17.82,0,1,0,17.82,17.82A17.83,17.83,0,0,0,100,117.57Zm0,30.19a12.38,12.38,0,1,1,12.38-12.38A12.39,12.39,0,0,1,100,147.76Z"/></svg>