<svg id="圖層_1" data-name="圖層 1" xmlns="http://www.w3.org/2000/svg" viewBox="0 0 200 200"><defs><style>.cls-1{fill:#898989;}</style></defs><title>room-icons</title><path class="cls-1" d="M135.12,174.08H64.88a5,5,0,0,1-5-5V30.93a5,5,0,0,1,5-5h70.24a5,5,0,0,1,5,5V169a5.06,5.06,0,0,1-5,5.07ZM64.88,28.25a2.71,2.71,0,0,0-2.68,2.68V169a2.71,2.71,0,0,0,2.68,2.68h70.24A2.71,2.71,0,0,0,137.8,169V30.93a2.71,2.71,0,0,0-2.68-2.68Z"/><path class="cls-1" d="M135.12,174.58H64.88a5.51,5.51,0,0,1-5.51-5.51V30.93a5.51,5.51,0,0,1,5.51-5.51h70.24a5.51,5.51,0,0,1,5.51,5.51V169A5.55,5.55,0,0,1,135.12,174.58ZM64.88,26.42a4.58,4.58,0,0,0-4.51,4.51V169.07a4.58,4.58,0,0,0,4.51,4.51h70.24a4.54,4.54,0,0,0,4.51-4.57V30.93a4.57,4.57,0,0,0-4.51-4.51Zm70.24,145.77H64.88A3.23,3.23,0,0,1,61.7,169V30.93a3.23,3.23,0,0,1,3.18-3.18h70.24a3.23,3.23,0,0,1,3.18,3.18V169A3.23,3.23,0,0,1,135.12,172.19ZM64.88,28.75a2.21,2.21,0,0,0-2.18,2.18V169a2.21,2.21,0,0,0,2.18,2.18h70.24A2.21,2.21,0,0,0,137.3,169V30.93a2.21,2.21,0,0,0-2.18-2.18Z"/><path class="cls-1" d="M61,95H139v2.33H61ZM125.9,80.28h-.53A3.32,3.32,0,0,1,122.05,77V59.28A3.32,3.32,0,0,1,125.37,56h.53a3.31,3.31,0,0,1,3.32,3.32V76.9A3.29,3.29,0,0,1,125.9,80.28Zm-.47-22a1,1,0,0,0-1,1V76.9a1,1,0,0,0,1,1H126a1,1,0,0,0,1-1V59.28a1,1,0,0,0-1-1ZM125.9,134h-.53a3.33,3.33,0,0,1-3.32-3.33V113.07a3.33,3.33,0,0,1,3.32-3.33h.53a3.32,3.32,0,0,1,3.32,3.33v17.61A3.28,3.28,0,0,1,125.9,134Zm-.47-22a1,1,0,0,0-1,1v17.61a1,1,0,0,0,1,1H126a1,1,0,0,0,1-1V113a1,1,0,0,0-1-1Z"/><path class="cls-1" d="M125.9,134.51h-.53a3.83,3.83,0,0,1-3.82-3.83V113.07a3.83,3.83,0,0,1,3.82-3.83h.53a3.84,3.84,0,0,1,3.83,3.83v17.61a3.6,3.6,0,0,1-1,2.65A3.88,3.88,0,0,1,125.9,134.51Zm-.53-24.27a2.83,2.83,0,0,0-2.82,2.83v17.61a2.83,2.83,0,0,0,2.82,2.83h.53a2.87,2.87,0,0,0,2.06-.87,2.65,2.65,0,0,0,.77-1.94V113.07a2.83,2.83,0,0,0-2.83-2.83Zm.59,21.88h-.53a1.48,1.48,0,0,1-1.49-1.49V113a1.47,1.47,0,0,1,1.49-1.49H126a1.47,1.47,0,0,1,1.49,1.49v17.62A1.48,1.48,0,0,1,126,132.12Zm-.53-19.6a.48.48,0,0,0-.49.49v17.62a.49.49,0,0,0,.49.49H126a.48.48,0,0,0,.49-.49V113a.48.48,0,0,0-.49-.49Zm14-14.64H60.53V94.54h78.94Zm-77.94-1h76.94V95.54H61.53Zm64.37-16.1h-.53A3.83,3.83,0,0,1,121.55,77V59.28a3.83,3.83,0,0,1,3.82-3.82h.53a3.83,3.83,0,0,1,3.83,3.82V76.9a3.72,3.72,0,0,1-1.07,2.72A3.8,3.8,0,0,1,125.9,80.78Zm-.53-24.32a2.83,2.83,0,0,0-2.82,2.82V77a2.82,2.82,0,0,0,2.82,2.82h.53a2.82,2.82,0,0,0,2-.86,2.76,2.76,0,0,0,.78-2V59.28a2.83,2.83,0,0,0-2.83-2.82ZM126,78.39h-.53a1.47,1.47,0,0,1-1.49-1.49V59.28a1.48,1.48,0,0,1,1.49-1.49H126a1.48,1.48,0,0,1,1.49,1.49V76.9A1.47,1.47,0,0,1,126,78.39Zm-.53-19.6a.48.48,0,0,0-.49.49V76.9a.48.48,0,0,0,.49.49H126a.48.48,0,0,0,.49-.49V59.28a.48.48,0,0,0-.49-.49Z"/></svg>