<svg id="圖層_1" data-name="圖層 1" xmlns="http://www.w3.org/2000/svg" viewBox="0 0 200 200"><defs><style>.cls-1{fill:#8a8a8a;}</style></defs><title>room-icons</title><path class="cls-1" d="M122,170.61H80.88a7.46,7.46,0,0,1-7.44-6.56L61.22,67.63a2.14,2.14,0,0,1,.56-1.78,2.33,2.33,0,0,1,1.66-.78h76a2,2,0,0,1,1.67.78,2.06,2.06,0,0,1,.55,1.78l-12.22,96.42A7.45,7.45,0,0,1,122,170.61ZM66,69.51l11.88,94A3.13,3.13,0,0,0,81,166.16h41.1a3.12,3.12,0,0,0,3.11-2.66l11.89-94ZM63.44,89.07A21.78,21.78,0,1,1,85.22,67.29,2.23,2.23,0,0,1,83,69.51H66L68.11,86.4a2.24,2.24,0,0,1-.45,1.67,2.44,2.44,0,0,1-1.44.88A24.25,24.25,0,0,1,63.44,89.07Zm0-39.11a17.33,17.33,0,0,0-.11,34.66l-2.11-17a2.14,2.14,0,0,1,.56-1.78,2.33,2.33,0,0,1,1.66-.78H80.66A17.48,17.48,0,0,0,63.44,50Zm70.77,50.44H68.44a1.11,1.11,0,1,1,0-2.22h65.77a1.11,1.11,0,0,1,0,2.22Zm-21.89,34.1h-.22a2.24,2.24,0,0,1-2-2.44l7.33-81.76a2.32,2.32,0,0,1,1.22-1.78l36.44-18.89a2.24,2.24,0,1,1,2,4L121.77,52l-7.23,80.54A2.27,2.27,0,0,1,112.32,134.5ZM63.44,68.4a1,1,0,0,1-1.11-1.11V47.74a1.11,1.11,0,0,1,2.22,0V67.29A1.11,1.11,0,0,1,63.44,68.4Zm0,0H43.89a1.11,1.11,0,0,1,0-2.22H63.44a1,1,0,0,1,1.11,1.11A1.11,1.11,0,0,1,63.44,68.4ZM49.67,82.29a1,1,0,0,1-.78-.33,1.09,1.09,0,0,1,0-1.56L76.55,52.74a1.09,1.09,0,0,1,1.56,0,1.08,1.08,0,0,1,0,1.55L50.45,82A1.23,1.23,0,0,1,49.67,82.29ZM63,68.07a1,1,0,0,1-.78-.33L48.78,54.29a1.06,1.06,0,0,1,0-1.55,1.08,1.08,0,0,1,1.55,0L63.78,66.18a1.09,1.09,0,0,1,0,1.56A.89.89,0,0,1,63,68.07Z"/></svg>