<svg id="圖層_1" data-name="圖層 1" xmlns="http://www.w3.org/2000/svg" viewBox="0 0 200 200"><defs><style>.cls-1{fill:#898989;}</style></defs><title>room-icons</title><path class="cls-1" d="M129,148.28H71a42.62,42.62,0,0,1-42.59-42.59,41.44,41.44,0,0,1,.94-8.84,1.46,1.46,0,0,1,1.42-1.18l138-1.65a1.51,1.51,0,0,1,1.42,1.12,41.69,41.69,0,0,1,1.41,10.55A42.62,42.62,0,0,1,129,148.28ZM32,98.62a41.12,41.12,0,0,0-.64,7.07A39.69,39.69,0,0,0,71,145.33h58a39.69,39.69,0,0,0,39.64-39.64,40.66,40.66,0,0,0-1-8.72Z"/><path class="cls-1" d="M129,148.78H71a43.14,43.14,0,0,1-43.1-43.09,41.32,41.32,0,0,1,1-9,2,2,0,0,1,1.9-1.57l138-1.65a2,2,0,0,1,1.9,1.49,42.15,42.15,0,0,1,1.43,10.68A43.14,43.14,0,0,1,129,148.78Zm39.76-54.26-138,1.65a1,1,0,0,0-.92.77,40.17,40.17,0,0,0-.94,8.75A42.14,42.14,0,0,0,71,147.78h58a42.14,42.14,0,0,0,42.09-42.09,41,41,0,0,0-1.4-10.42A1,1,0,0,0,168.75,94.52ZM129,145.83H71a40.19,40.19,0,0,1-40.15-40.14,41.24,41.24,0,0,1,.65-7.16l.07-.41H32l136-1.66.09.4a41.33,41.33,0,0,1,1,8.83A40.19,40.19,0,0,1,129,145.83ZM32.44,99.11A39.07,39.07,0,0,0,71,144.83h58a39.19,39.19,0,0,0,39.14-39.14,40,40,0,0,0-.9-8.22Z"/><path class="cls-1" d="M44.8,160a1.46,1.46,0,0,1-.94-.35,1.43,1.43,0,0,1-.18-2.06l12.14-14.26a1.46,1.46,0,1,1,2.23,1.89L45.92,159.47a1.44,1.44,0,0,1-1.12.53Zm109.64,0a1.53,1.53,0,0,1-1.18-.53L142,145.16a1.47,1.47,0,1,1,2.3-1.83l11.25,14.26a1.42,1.42,0,0,1-.23,2.06A1.22,1.22,0,0,1,154.44,160ZM131.22,73.46a1.53,1.53,0,0,1-1.41-1.06,13.75,13.75,0,0,1-.53-3.59c0-7,5.13-12.61,11.37-12.61S152,61.85,152,68.81a13,13,0,0,1-.41,3.18,1.47,1.47,0,0,1-1.42,1.12l-19,.35Zm9.43-14.32c-4.65,0-8.42,4.3-8.42,9.67a8.52,8.52,0,0,0,.17,1.7L149,70.16a11.13,11.13,0,0,0,.11-1.35C149.07,63.44,145.3,59.14,140.65,59.14Z"/><path class="cls-1" d="M154.44,160.5a2.09,2.09,0,0,1-1.57-.71l-11.26-14.32a2,2,0,0,1-.42-1.49,1.84,1.84,0,0,1,.76-1.29,2,2,0,0,1,1.47-.41,1.84,1.84,0,0,1,1.29.76L156,157.28a2,2,0,0,1,.42,1.48,1.8,1.8,0,0,1-.76,1.29A1.61,1.61,0,0,1,154.44,160.5Zm-11.27-17.24a1,1,0,0,0-.61.22.9.9,0,0,0-.38.63.93.93,0,0,0,.21.73l11.26,14.32a1,1,0,0,0,1.32.14,1,1,0,0,0,.41-.66,1,1,0,0,0-.21-.74l-11.26-14.26a.9.9,0,0,0-.62-.37ZM44.8,160.5a1.93,1.93,0,0,1-1.26-.46,2,2,0,0,1-.71-1.36,1.92,1.92,0,0,1,.48-1.43L55.43,143a2,2,0,1,1,3,2.54L46.3,159.8A2,2,0,0,1,44.8,160.5Zm12.14-17.2h-.08a.94.94,0,0,0-.66.35L44.06,157.91a.94.94,0,0,0-.24.69,1,1,0,0,0,.35.66.93.93,0,0,0,1.36-.11l12.14-14.26a.88.88,0,0,0,.24-.69,1,1,0,0,0-1-.9ZM131.23,74h0a2,2,0,0,1-1.89-1.42,14.15,14.15,0,0,1-.55-3.73c0-7.23,5.33-13.11,11.87-13.11s11.87,5.88,11.87,13.11a13.42,13.42,0,0,1-.43,3.3,2,2,0,0,1-1.9,1.5Zm9.42-17.26c-6,0-10.87,5.43-10.87,12.11a13.35,13.35,0,0,0,.51,3.46,1,1,0,0,0,.93.69l19-.35a1,1,0,0,0,.94-.75,12.3,12.3,0,0,0,.4-3C151.52,62.13,146.64,56.7,140.65,56.7ZM132,71l-.08-.41a9.47,9.47,0,0,1-.18-1.8c0-5.61,4-10.17,8.92-10.17s8.92,4.56,8.92,10.17a11.84,11.84,0,0,1-.12,1.41l0,.43Zm8.66-11.38c-4.37,0-7.92,4.11-7.92,9.17a8.15,8.15,0,0,0,.09,1.19l15.69-.33a6.79,6.79,0,0,0,.06-.86C148.57,63.75,145,59.64,140.65,59.64Z"/><path class="cls-1" d="M166.1,96.73H166a1.47,1.47,0,0,1-1.35-1.59c.06-.65.06-1.36.06-2.06V60.32c0-9.42-5.25-17.38-11.37-17.38-5.42,0-10.25,6.13-11.2,14.26a1.48,1.48,0,1,1-2.94-.35C140.36,47.07,146.31,40,153.32,40c7.89,0,14.31,9.13,14.31,20.32V93.08c0,.76-.06,1.53-.12,2.3A1.38,1.38,0,0,1,166.1,96.73Z"/><path class="cls-1" d="M166.1,97.23H166a2,2,0,0,1-1.39-.68,2,2,0,0,1-.46-1.45c.06-.63.06-1.34.06-2V60.32c0-9.15-5-16.88-10.87-16.88-5.19,0-9.79,5.94-10.7,13.82a2,2,0,0,1-3.94-.45c1.21-10,7.36-17.31,14.64-17.31,8.17,0,14.81,9.34,14.81,20.82V93.08c0,.78-.06,1.57-.12,2.33A1.87,1.87,0,0,1,166.1,97.23ZM153.32,42.44c6.43,0,11.87,8.19,11.87,17.88V93.08c0,.7,0,1.43-.06,2.1a1,1,0,0,0,.23.72,1,1,0,0,0,.66.33h.08a.88.88,0,0,0,.91-.85c.06-.79.12-1.56.12-2.3V60.32c0-10.93-6.2-19.82-13.81-19.82-6.76,0-12.5,6.9-13.65,16.41a1,1,0,0,0,.87,1.09,1,1,0,0,0,1.09-.87C142.6,48.76,147.62,42.44,153.32,42.44Z"/></svg>